<svg viewBox="0 0 2628 1401.6" class="bg-svg">
      
      <g class="cls-6">
        <g id="circuits">

          <!-- =========================
               ORIGINAL BACKGROUND
               ========================= -->
          <g id="background">
            <rect class="cls-1" x="-137.56" y="-108.87" width="2903.11" height="1619.33"/>
            <g class="cls-7">
              <path class="cls-2" d="M3166.15,41.16v9.61l-25.81,25.81h-69.72l-14.91-14.91h-33.68v-5.76h-15.68v15.68h15.68v-4.55h31.46l14.91,14.91h74.16l28.96-28.96v-14.05l-19.7-19.7h-554.78l-15.52-15.52h-43.94v50.9l38.3,38.3h71.84v-48.61h7.6v48.61h74.49v-48.61h29.08v5.73h15.68v-15.68h-15.68v4.59h-34.44v48.61h-63.76v-48.61h-18.33v48.61h-64.25l-35.15-35.15V9.08h36.35l15.52,15.52h554.78l16.56,16.56ZM3016.67,66.23h-4.95v-4.95h4.95v4.95ZM2764.24,39.72h4.95v4.95h-4.95v-4.95Z"/>
              <path class="cls-3" d="M3682.02-1.65c0-1.48-1.2-2.68-2.68-2.68h-472.42l-32.06-32.06h-554.78l-15.52-15.52h-196.36l-30.53,30.53h-107.44l-84.57,84.57v27.25l92.55-92.55h107.44l30.53-30.53h180.39l15.52,15.52h554.78l32.06,32.06h112.4v5.4h15.68V4.67h-15.68v4.91h-110.18l-32.06-32.06h-554.78l-15.52-15.52h-184.84l-30.53,30.53h-107.44l-84.97,84.97v-12.08l81.43-81.43h107.44l30.53-30.53h191.91l15.52,15.52h554.78l32.06,32.06h474.64c1.48,0,2.68-1.2,2.68-2.68ZM3316.7,10.03h4.95v4.95h-4.95v-4.95Z"/>
              <path class="cls-2" d="M2360.39-63.1h-107.44l-109.01,109.01v185.31l-65.82,65.82v56.3l-48.86,48.86h-26.6l-64.96,64.96v26.6l-35.02,35.02h-184v-4.32h-15.68v15.67h15.68v-5.99h186.22l38.16-38.16v-26.6l61.82-61.82h26.6l52-52v-56.3l65.82-65.82V48.13l105.87-105.87h107.44l30.53-30.53h226.48l15.52,15.52h554.78l32.06,32.06h194.38l30.95-30.95h232.02c1.48,0,2.68-1.2,2.68-2.68s-1.2-2.68-2.68-2.68h-234.25l-30.95,30.95h-189.94l-32.06-32.06h-554.78l-15.52-15.52h-230.92l-30.53,30.53ZM1713.32,534.76h-4.95v-4.95h4.95v4.95Z"/>
              <path class="cls-3" d="M2633.93,60.77v-21.01h-21.01v21.01h21.01ZM2620.97,47.8h4.92v4.92h-4.92v-4.92Z"/>
              <path class="cls-2" d="M2562.16,60.77h21.01v-21.01h-21.01v21.01ZM2570.2,47.8h4.91v4.92h-4.91v-4.92Z"/>
              <path class="cls-3" d="M2518.36,60.77v-21.01h-21.01v21.01h21.01ZM2505.4,47.8h4.92v4.92h-4.92v-4.92Z"/>
              <path class="cls-2" d="M2960.13,1062.03v-21.01h-21.01v5.67h-47.85v-46.99h-25.87v46.99h-15.45v-46.99h-25.87v46.99h-15.45v-46.99h-25.87v46.99h-15.45v-46.99h-25.87v46.99h-15.45v-46.99h-25.87v46.99h-40.56v-16.26h17.82v-29.51h-27.97l-37.67,37.67h-33.2v-8.1h-21.01v21.01h21.01v-4.86h36.53l37.67-37.67h16.59v13.42h-17.82v32.35h52.63c2.22,0,4.02-1.8,4.02-4.02v-42.96h9.78v46.99h31.54v-46.99h9.77v46.99h31.54v-46.99h9.78v46.99h31.54v-46.99h9.78v46.99h31.54v-46.99h9.78v46.99h55.9v7.29h21.01ZM2570.53,1043.46h-4.92v-4.91h4.92v4.91ZM2947.16,1049.07h4.91v4.91h-4.91v-4.91Z"/>
              <path class="cls-2" d="M2453.55,60.77v-21.01h-21.01v21.01h21.01ZM2440.59,47.8h4.92v4.92h-4.92v-4.92Z"/>
              <path class="cls-3" d="M2388.74,60.77v-21.01h-21.01v21.01h21.01ZM2375.78,47.8h4.91v4.92h-4.91v-4.92Z"/>
              <path class="cls-2" d="M2323.94,60.77v-21.01h-21.01v21.01h21.01ZM2310.97,47.8h4.91v4.92h-4.91v-4.92Z"/>
              <path class="cls-3" d="M3464.59,1071.2h-70.37l-35.97-35.97h-180.37l-86.7,86.7h-80.16l-87.53,87.53h-34.41l-39.61-39.61h-72.7l-37.52,37.52h-100.71l-16.81-16.81v-22.63l-38.88-38.88h-37.13l-69.53-69.53h-338.09l-62.39-62.39v-22.89l-20.05-20.05h-40.64l-81.42-81.41h-72.88l-15.39,15.39h-89.41l-16.79-16.79c-.14-.14-.31-.21-.47-.31v-4.59h-15.68v15.68h15.68v-3.66l15.04,15.04h93.85l15.39-15.39h68.44l81.41,81.41h40.64l16.9,16.9v22.89l65.54,65.54h338.09l69.53,69.53h37.13l35.73,35.74v22.63l19.95,19.95h105.15l37.52-37.52h68.26l39.61,39.61h38.85l87.53-87.53h80.16l86.7-86.7h175.93l35.97,35.97h74.79l50.47-49.88h177.69c1.48,0,2.68-1.2,2.68-2.68s-1.2-2.68-2.68-2.68h-179.89l-50.47,49.88ZM1733.32,876.8h-4.95v-4.95h4.95v4.95Z"/>
              <path class="cls-3" d="M1746.94,839.85h-8.26v-5.23h-15.68v15.68h15.68v-5.08h6.04l20.52,20.52h70.81l15.39-15.39h91.48l81.41,81.41h40.64l33.2,33.19v22.89l46.29,46.3h337.5l47.75-47.74h60.27l37.37-37.37h282.34l61.89-61.89h128.21l191.23-191.23h56.48l56.89,56.89h17.69l16.38-16.38h230.94c1.48,0,2.68-1.2,2.68-2.68s-1.2-2.68-2.68-2.68h-233.16l-16.38,16.38h-13.25l-56.89-56.89h-60.93l-191.23,191.23h-128.21l-61.89,61.89h-282.34l-37.37,37.37h-60.27l-47.75,47.75h-333.05l-43.15-43.15v-22.89l-36.34-36.34h-40.64l-81.41-81.41h-95.92l-15.39,15.39h-66.37l-20.52-20.52ZM1733.32,844.93h-4.95v-4.95h4.95v4.95Z"/>
              <path class="cls-2" d="M3482.23,398.98l-33.42-33.42h-461.99l-23.09-23.09h-322.3l-112.6,112.6h-285.15l-235.73,235.73h-273.51c-.46,0-.91.05-1.34.14-2.81-3.71-7.25-6.12-12.25-6.12-8.48,0-15.39,6.9-15.39,15.39s6.9,15.39,15.39,15.39c7.1,0,13.07-4.84,14.84-11.38h277.82l235.73-235.73h285.15l112.6-112.6h311.19l23.09,23.09h461.99l33.42,33.42h202.67c3.7,0,6.71-3,6.71-6.71s-3-6.71-6.71-6.71h-197.11ZM1720.85,704.88c-2.57,0-4.66-2.09-4.66-4.66s2.09-4.66,4.66-4.66,4.66,2.09,4.66,4.66-2.09,4.66-4.66,4.66Z"/>
              <path class="cls-2" d="M2170.03,694.55c0,9.22,7.5,16.73,16.73,16.73,7.84,0,14.42-5.43,16.22-12.72h507.32l72.1,72.1h23.94l44.96,44.96h27.02l80.58-80.58h186.16l115.07-115.07h409.28c3.7,0,6.71-3,6.71-6.71s-3-6.71-6.71-6.71h-414.83l-115.07,115.07h-186.16l-80.58,80.58h-15.91l-44.96-44.96h-23.94l-72.1-72.1h-514.75c-.17,0-.32.04-.48.05-3.01-4.44-8.1-7.37-13.86-7.37-9.22,0-16.73,7.5-16.73,16.72ZM2186.76,691.24c1.83,0,3.32,1.49,3.32,3.31s-1.49,3.32-3.32,3.32-3.31-1.49-3.31-3.32,1.49-3.31,3.31-3.31Z"/>
              <path class="cls-2" d="M3432.9,1525.95h-257.68l-64.2,64.2h-699.63l-47.66-47.66h-159.59l-66.01-66.01v-179.84l-72.91-72.91v-27.54l-212.93-212.93h-119.02c-2.8-3.84-7.32-6.36-12.43-6.36-8.48,0-15.39,6.9-15.39,15.38s6.9,15.39,15.39,15.39c6.96,0,12.85-4.65,14.74-11h111.16l205.08,205.08v27.54l72.91,72.91v179.84l73.87,73.87h159.59l47.66,47.66h710.74l64.2-64.2h257.68l20.76-20.76h268.1c3.7,0,6.71-3,6.71-6.71s-3-6.71-6.71-6.71h-273.65l-20.76,20.76ZM1720.85,996.94c-2.57,0-4.66-2.09-4.66-4.66s2.09-4.66,4.66-4.66c1.41,0,2.66.65,3.52,1.64-.02.23-.07.45-.07.69,0,1.3.39,2.5,1.03,3.53-.54,1.98-2.33,3.45-4.48,3.45Z"/>
              <path class="cls-3" d="M3388.12,1509.05h-203.07l-65.82-65.82h-95.19l-18.23-18.23h-491.25l-52.12,52.12h-291.03l-15.17-15.17v-120.44h5.21v-15.68h-15.68v15.68h5.1v122.66l18.31,18.31h295.47l52.12-52.12h486.8l18.23,18.23h95.19l65.82,65.82h207.51l49.18-49.18h283.47c1.48,0,2.68-1.2,2.68-2.68s-1.2-2.68-2.68-2.68h-285.69l-49.18,49.18ZM2151.16,1331.2h4.95v4.95h-4.95v-4.95Z"/>
              <path class="cls-2" d="M2357.03,1828.73h-60.39l-344.31-344.31v-28.95l-82.69-82.69h-12.53v-4.92h-15.68v15.68h15.68v-5.4h10.31l79.54,79.54v28.95l347.46,347.46h60.39l63.28,63.28c1.05,1.05,2.75,1.05,3.79,0,1.05-1.05,1.05-2.75,0-3.79l-64.86-64.86ZM1851.75,1378.17h-4.95v-4.95h4.95v4.95Z"/>
              <path class="cls-3" d="M2351.27,1842.63h-60.38l-507.76-507.76h-17.08l-45.12-45.12v-68.87h5.57v-15.68h-15.68v15.68h4.74v71.09l48.26,48.26h17.08l507.76,507.76h60.38l47.87,47.87c1.05,1.05,2.75,1.05,3.79,0s1.05-2.75,0-3.79l-49.44-49.44ZM1716.18,1210.58h4.95v4.95h-4.95v-4.95Z"/>
              <path class="cls-2" d="M1830.8,1438.9v-19.6l-123.79-123.79v-256.49h5.1v-15.68h-15.68v15.68h5.21v258.71l123.79,123.79v19.6l478.55,478.55c1.05,1.05,2.75,1.05,3.79,0,1.05-1.05,1.05-2.74,0-3.79l-476.98-476.98ZM1701.81,1028.72h4.95v4.95h-4.95v-4.95Z"/>
              <path class="cls-3" d="M1816.9,1444.66v-19.6l-138.32-138.32v-65.85h5.42v-15.68h-15.68v15.68h4.89v68.07l138.32,138.32v19.6l482.62,482.62c1.05,1.05,2.75,1.05,3.79,0,1.05-1.05,1.05-2.75,0-3.79l-481.05-481.05ZM1673.69,1210.58h4.95v4.95h-4.95v-4.95Z"/>
              <path class="cls-2" d="M2015.89,1701.53h-28.91l-82.42-82.42v-23.19l-101.56-101.57v-63.52l-138.32-138.32v-91.79l27.95-27.95v-28.95l-15.39-15.39v-102.2h5.52v-15.68h-15.68v15.68h4.79v104.42l15.39,15.39v24.51l-27.95,27.95v110.14l138.32,138.32v49.62l101.56,101.57v23.19l85.57,85.57h28.91l231.03,231.03c1.05,1.05,2.75,1.05,3.79,0,1.05-1.05,1.05-2.75,0-3.79l-232.6-232.6ZM1672.44,1015.9h4.95v4.95h-4.95v-4.95ZM1664.67,1306.41v-6.32l132.96,132.96v6.32l-132.96-132.96Z"/>
              <path class="cls-3" d="M2301.58,1718.25h-69.94l-204.46-204.46v-23.22l-154.41-154.41h-54.83v-5.17h-15.68v15.68h15.68v-5.14h52.61l151.26,151.26v23.22l207.6,207.6h69.94l160.29,160.29c1.05,1.05,2.75,1.05,3.79,0,1.05-1.05,1.05-2.75,0-3.79l-161.86-161.86ZM1812.58,1341.3h-4.95v-4.95h4.95v4.95Z"/>
              <path class="cls-2" d="M430.51,1425.74v-48.91l75.36-75.36h96.6l253.64-253.64v-42.53l14.3-14.3h200.12c2.46,4.81,7.46,8.11,13.22,8.11,8.19,0,14.85-6.66,14.85-14.86s-6.66-14.86-14.85-14.86c-5.79,0-10.81,3.34-13.26,8.19h-205.63l-22.16,22.16v42.53l-245.78,245.78h-96.6l-83.22,83.22v48.91l-20.83,20.83h-218.13v214.38l-16.03,16.04h-437.45l-72.1,72.1h-26.73l-110.92,110.92c-2.62,2.62-2.62,6.86,0,9.48,2.62,2.62,6.86,2.62,9.48,0l106.99-106.99h26.73l72.1-72.1H167.65l23.89-23.89v-206.53h210.27l28.69-28.69ZM1083.75,980.13c2.27,0,4.13,1.85,4.13,4.13s-1.85,4.13-4.13,4.13-4.13-1.85-4.13-4.13,1.85-4.13,4.13-4.13Z"/>
              <path class="cls-2" d="M1857.29,1846.21h-76.38l-69.59-69.59v-68.66l-31.78-31.79v-168.86l-86.17-86.17h-55.97l-60.63-60.63v-28.18l-55.58-55.58v-250.69h4.23v-15.68h-15.68v15.68h6.08v252.91l55.58,55.58v28.18l63.77,63.78h55.97l83.03,83.03v168.86l31.78,31.79v68.66l72.73,72.73h76.38l111.61,111.61c1.05,1.05,2.75,1.05,3.79,0,1.05-1.05,1.05-2.75,0-3.79l-113.18-113.18ZM1415.11,1015.75h4.95v4.95h-4.95v-4.95Z"/>
              <path class="cls-2" d="M1863.05,1832.3h-76.38l-61.44-61.44v-68.67l-31.79-31.78v-183.62l-170.68-170.68v-289.89h4.99v-15.68h-15.68v15.68h5.32v292.11l170.68,170.68v183.62l31.79,31.78v68.67l64.58,64.58h76.38l115.69,115.69c1.05,1.05,2.74,1.05,3.79,0,1.05-1.05,1.05-2.75,0-3.79l-117.26-117.26ZM1517.45,1015.9h4.95v4.95h-4.95v-4.95Z"/>
              <path class="cls-3" d="M1868.81,1818.39h-76.38l-53.3-53.3v-88.11l-31.78-31.79v-188.1l-117.22-117.22v-22.14l-53.47-53.47v-183.38h5.46v-15.68h-15.68v15.68h4.85v185.6l53.47,53.47v22.14l117.22,117.22v188.1l31.78,31.79v88.11l56.44,56.44h76.38l119.76,119.76c1.05,1.05,2.75,1.05,3.79,0,1.05-1.05,1.05-2.75,0-3.79l-121.33-121.33ZM1531.82,1070.59h4.95v4.95h-4.95v-4.95Z"/>
              <path class="cls-2" d="M1874.57,1804.49h-76.38l-45.15-45.15v-88.11l-31.78-31.79v-188.1l-117.22-117.21v-40.5l-53.47-53.47v-213.95h5.3v-15.68h-15.68v15.68h5.01v216.17l53.47,53.47v40.5l117.22,117.21v188.1l31.78,31.79v88.11l48.29,48.29h76.38l123.83,123.83c1.05,1.05,2.75,1.05,3.79,0,1.05-1.05,1.05-2.74,0-3.79l-125.4-125.4ZM1545.57,1015.9h4.95v4.95h-4.95v-4.95Z"/>
              <path class="cls-3" d="M1880.33,1790.58h-76.38l-37-37v-88.11l-31.78-31.78v-188.1l-117.22-117.22v-40.5l-53.47-53.47v-153.5h5.14v-15.68h-15.68v15.68h5.17v155.72l53.47,53.47v40.5l117.22,117.22v188.1l31.78,31.78v88.11l40.15,40.15h76.38l127.9,127.9c1.05,1.05,2.74,1.05,3.79,0,1.05-1.05,1.05-2.75,0-3.79l-129.48-129.48ZM1559.32,1070.59h4.95v4.95h-4.95v-4.95Z"/>
              <path class="cls-2" d="M1850.18,1685.53v-110.85l-65.21-65.21v-33.75l-153.11-153.11v-40.5l-53.47-53.47v-202.42h5.61v-15.68h-15.68v15.68h4.7v204.65l53.47,53.47v40.5l153.11,153.11v33.75l65.21,65.21v110.85l231.59,231.59c1.05,1.05,2.75,1.05,3.79,0,1.05-1.05,1.05-2.75,0-3.79l-230.02-230.02ZM1573.69,1015.9h4.95v4.95h-4.95v-4.95Z"/>
              <path class="cls-2" d="M1703.12,1824.82v-73.72l-104.5-104.5v-31.71l30.52-30.52-68.47-68.48h-61.05l-13.87,13.87-23.31-23.31v-164.1l-65.04-65.04v-238.76c0-.16-.04-.32-.05-.48,4.56-2.67,7.64-7.61,7.64-13.27,0-8.48-6.9-15.38-15.38-15.38s-15.39,6.9-15.39,15.38c0,6.5,4.05,12.05,9.76,14.31v243.76l65.04,65.04v164.1l36.72,36.72,19.42-19.42h49.94l55.06,55.06-24.97,24.97v42.82l104.5,104.5v73.72l124.69,124.69c2.62,2.62,6.87,2.62,9.48,0,2.62-2.62,2.62-6.86,0-9.48l-120.76-120.77ZM1389.62,1020.15c2.57,0,4.65,2.09,4.65,4.66s-2.09,4.66-4.65,4.66-4.66-2.09-4.66-4.66,2.09-4.66,4.66-4.66Z"/>
              <path class="cls-3" d="M1637.39,1859.43v-67.24l-295.12-295.12v-122.44h5.5v-15.68h-15.68v15.68h4.82v124.66l295.12,295.12v67.24l91.18,91.18c1.05,1.05,2.75,1.05,3.79,0,1.05-1.05,1.05-2.75,0-3.79l-89.61-89.61ZM1337.46,1364.32h4.95v4.95h-4.95v-4.95Z"/>
              <path class="cls-2" d="M1165.18,1193.03l32.74-32.74v-105.49h4.86v-15.68h-15.68v15.68h5.45v103.26l-32.74,32.74v304.62l-281.61,281.61v139.67c0,1.48,1.2,2.68,2.68,2.68s2.68-1.2,2.68-2.68v-137.45l281.61-281.61v-304.62ZM1192.47,1044.5h4.95v4.95h-4.95v-4.95Z"/>
              <path class="cls-3" d="M1211.83,1166.05v-67.66h5.01v-15.68h-15.68v15.68h5.3v65.43l-32.74,32.74v301.08l29,29v90.84l-36.27,36.27v90.11l-12.19,12.19v199.54c0,1.48,1.2,2.68,2.68,2.68s2.68-1.2,2.68-2.68v-197.32l12.19-12.19v-90.11l36.27-36.27v-95.28l-29-29v-296.63l32.74-32.74ZM1206.53,1088.09h4.95v4.95h-4.95v-4.95Z"/>
              <path class="cls-2" d="M1225.73,1674.76v-648.41c0-.1-.05-.19-.06-.29h5.7v-15.68h-15.68v15.68h4.73c-.01.1-.06.19-.06.29v648.41c0,1,.57,1.84,1.39,2.3h-6.53v15.68h15.68v-15.68h-6.56c.81-.46,1.39-1.3,1.39-2.3ZM1221.06,1015.75h4.95v4.95h-4.95v-4.95ZM1225.54,1687.37h-4.95v-4.95h4.95v4.95Z"/>
              <path class="cls-3" d="M1251.13,1471.73l29.16-29.16v-58.3l-40.65-40.65v-291.03s-.02-.08-.03-.13h4.88v-15.68h-15.68v15.68h5.48s-.03.08-.03.13v293.25l40.65,40.65v53.85l-29.16,29.16v235.51l49.7,49.7v141.47c0,1.48,1.2,2.68,2.68,2.68s2.68-1.2,2.68-2.68v-143.69l-49.7-49.7v-231.07ZM1234.18,1042.15h4.95v4.95h-4.95v-4.95Z"/>
              <path class="cls-2" d="M1314.73,1355.13l-32.52-32.52v-51.62l-28.67-28.67v-59.08h5.01v-15.68h-15.68v15.68h5.3v61.3l28.67,28.67v51.62l32.52,32.52v397.37l54.06,54.06v119.81c0,1.48,1.2,2.68,2.68,2.68s2.68-1.2,2.68-2.68v-122.03l-54.06-54.06v-397.37ZM1248.25,1172.93h4.95v4.95h-4.95v-4.95Z"/>
              <path class="cls-2" d="M1651.3,1853.67v-67.24l-295.12-295.12v-81.84h6.27v-15.68h-15.68v15.68h4.04v84.06l295.12,295.12v67.24l87.11,87.11c1.05,1.05,2.75,1.05,3.79,0,1.05-1.05,1.05-2.75,0-3.79l-85.53-85.53ZM1352.14,1399.16h4.95v4.95h-4.95v-4.95Z"/>
              <path class="cls-3" d="M1665.21,1847.91v-67.24l-295.12-295.12v-146.36l-102.64-102.63v-28.01h5.17v-15.68h-15.68v15.68h5.15v30.23l102.64,102.63v146.36l295.12,295.12v67.24l83.03,83.03c1.05,1.05,2.75,1.05,3.79,0,1.05-1.05,1.05-2.75,0-3.79l-81.46-81.46ZM1262.31,1198.24h4.95v4.95h-4.95v-4.95Z"/>
              <path class="cls-2" d="M1679.11,1842.15v-67.24l-279.48-279.48v-146.36l-118.27-118.27v-73.45l-17.28-17.28v-114.01h5.73v-15.68h-15.68v15.68h4.58v116.23l17.28,17.28v73.45l118.27,118.27v146.36l279.48,279.48v67.24l78.96,78.96c1.05,1.05,2.75,1.05,3.79,0,1.05-1.05,1.05-2.74,0-3.79l-77.39-77.39ZM1259.5,1015.75h4.95v4.95h-4.95v-4.95Z"/>
              <path class="cls-3" d="M963.94,1614.44l83.08-83.08h44.56l49.37-49.37v-124.86h5.59v-15.68h-15.67v15.68h4.72v122.64l-46.22,46.22h-44.56l-86.23,86.23v47.39l-100.25,100.25v156.85c0,1.48,1.2,2.68,2.68,2.68s2.68-1.2,2.68-2.68v-154.63l100.25-100.25v-47.39ZM1136.22,1346.82h4.95v4.95h-4.95v-4.95Z"/>
              <path class="cls-3" d="M872.25,1123.33l-21.17-21.17h-26.68l-200.12,200.12v31.68h-4.65v15.68h15.68v-15.68h-5.67v-29.46l196.98-196.98h22.24l18.03,18.03v429.06l-149.78,149.6v212.5c0,1.48,1.2,2.68,2.68,2.68s2.68-1.2,2.68-2.68v-210.27l149.78-149.6v-433.5ZM629.94,1344.27h-4.95v-4.95h4.95v4.95Z"/>
              <path class="cls-3" d="M890.03,1041.03l33.8-33.8h130.15v5.86h15.68v-15.68h-15.68v4.45h-132.37l-36.94,36.95v576.51l-111.93,111.93v189.46c0,1.48,1.2,2.68,2.68,2.68s2.68-1.2,2.68-2.68v-187.24l111.93-111.93v-576.51ZM1059.34,1002.78h4.95v4.95h-4.95v-4.95Z"/>
              <path class="cls-2" d="M-1085.22-271.77l417.11,417.11v350.18l62.28,62.28h130.26l85.77,85.77H441.71l-30.88,30.88H-46.96l-38.89,38.89h-8.94l-57.11-57.11h-267.74l-83.23-83.23h-125.77l-59.44-59.44v-115.73h5.4v-15.68h-15.68v15.68h4.91v117.95l62.59,62.58h125.77l83.23,83.23H-154.12l57.11,57.11h13.38l38.89-38.89h457.8l41.61-41.61H-387.59l-85.77-85.77h-130.26l-59.14-59.14V143.12l-418.68-418.68c-.52-.52-1.21-.79-1.9-.79s-1.37.26-1.9.79c-1.05,1.05-1.05,2.74,0,3.79ZM-692.99,387.51h4.95v4.95h-4.95v-4.95Z"/>
              <path class="cls-2" d="M-395.85-77.12l36.67,36.68V-10l21.41,21.41v68.43l88.19,88.19v121.74L24.95,564.29h472.78v6.02h15.68v-15.68h-15.68v4.3H27.17L-244.21,287.54v-121.74l-88.19-88.19V9.19l-21.41-21.41v-30.43l-39.82-39.82h-27.45l-50.05-50.05v-369.15c0-1.48-1.2-2.68-2.68-2.68s-2.68,1.2-2.68,2.68V-130.31l53.2,53.19h27.45ZM503.1,560h4.95v4.95h-4.95v-4.95Z"/>
              <path class="cls-2" d="M-286.9,16.02l104.47,104.47h55.59l22.69,22.7v139.41l14.61,14.61h19.29l30.68,30.68v56.47l159.57,159.57h485.23v7.02h15.68v-15.68h-15.68v3.29H122.22L-34.2,382.13v-56.47l-33.83-33.83h-19.29l-11.46-11.46v-139.41l-25.84-25.84h-55.59L-281.54,13.8V-51.3l-131.63-131.63v-318.75c0-1.48-1.2-2.68-2.68-2.68s-2.68,1.2-2.68,2.68V-180.71L-286.9-49.08V16.02ZM610.59,540.62h4.95v4.95h-4.95v-4.95Z"/>
              <path class="cls-3" d="M-852.99,394.49v-214.65l-215.55-215.55c-.52-.52-1.21-.79-1.9-.79s-1.37.26-1.9.79c-1.05,1.05-1.05,2.74,0,3.79l213.98,213.98v210.2l-151.58,151.57v63.43l155.31,155.31h99.88l39.16-39.16h79.69l99.91,99.91h176.34l58.04,58.04H-42.63l76.64-76.64h36.47l60.02-60.02h370.84l32.51-32.51v-46.55l34.61-34.61h38.73l74.63-74.63h165.45l10.67,10.67h23.24v4.95h15.68v-15.68h-15.68v5.36h-21.02l-10.67-10.67h-169.9l-74.63,74.63h-38.73l-37.75,37.75v46.55l-29.37,29.37H128.28l-60.02,60.02H31.79l-76.64,76.64h-254.53l-58.04-58.04h-176.34l-99.91-99.91h-84.13l-39.16,39.16h-95.44l-152.16-152.16v-58.99l151.58-151.57ZM886.55,561.71h4.95v4.95h-4.95v-4.95Z"/>
              <path class="cls-3" d="M-866.14,790.39h122.92l39.16-39.16h56.65l99.9,99.9h176.34l58.04,58.04H-31.11l76.64-76.64h36.47l60.02-60.02h385.45l188.29-188.29h57.84l10.67,10.67h96.91v4.79h15.68v-15.68h-15.68v5.52h-94.69l-10.67-10.67h-62.28l-188.29,188.29H139.81l-60.02,60.02h-36.47l-76.64,76.64h-277.57l-58.04-58.04h-176.34l-99.9-99.9h-61.09l-39.16,39.16h-118.48l-202.68-202.68c-1.05-1.05-2.75-1.05-3.79,0-1.05,1.05-1.05,2.75,0,3.79l204.25,204.25ZM886.55,589.37h4.95v4.95h-4.95v-4.95Z"/>
              <path class="cls-3" d="M-1059.46,1177.94h493.16l75.01-75.01h21.43l14.15,14.15h46.73l25.71-25.7H97.96l56.6,56.6h194.28l106.14-106.14v-40.75h5.5v-15.68h-15.68v15.68h4.81v38.53l-103,103h-189.84l-56.6-56.6h-485.67l-25.71,25.7h-42.28l-14.15-14.15h-25.87l-75.01,75.01h-490.94c-1.48,0-2.68,1.2-2.68,2.68s1.2,2.68,2.68,2.68ZM450.18,990.78h4.95v4.95h-4.95v-4.95Z"/>
              <path class="cls-2" d="M-492.43,1270.68H202.93l54.31-54.31h162.15l77.32-77.32v-173.58l66.02-66.02v-26.73l208.29-208.28h139.23v5.25h15.68v-15.68h-15.68v5.06h-141.46l-211.43,211.43v26.73l-66.02,66.02v173.58l-74.17,74.17h-162.15l-54.31,54.31H-490.2l-73.13-73.13h-519.89c-1.48,0-2.68,1.2-2.68,2.68s1.2,2.68,2.68,2.68h517.67l73.13,73.13ZM915.61,659.37h4.95v4.95h-4.95v-4.95Z"/>
              <rect class="cls-2" x="336.38" y="1337.76" width="15.12" height="15.12"/>
              <rect class="cls-3" x="312.62" y="1337.76" width="15.12" height="15.12"/>
              <rect class="cls-3" x="288.86" y="1337.76" width="15.12" height="15.12"/>
              <rect class="cls-2" x="219.73" y="1337.76" width="15.12" height="15.12"/>
              <rect class="cls-3" x="195.97" y="1337.76" width="15.12" height="15.12"/>
              <rect class="cls-2" x="172.2" y="1337.76" width="15.12" height="15.12"/>
              <rect class="cls-2" x="145.42" y="1198.16" width="8.91" height="8.91"/>
              <rect class="cls-3" x="122.33" y="1198.16" width="8.91" height="8.91"/>
              <rect class="cls-2" x="99.24" y="1198.16" width="8.91" height="8.91"/>
              <rect class="cls-3" x="76.15" y="1198.16" width="8.91" height="8.91"/>
              <rect class="cls-3" x="-2.83" y="1198.16" width="8.91" height="8.91"/>
              <rect class="cls-2" x="-2.83" y="1177.9" width="8.91" height="8.91"/>
              <rect class="cls-3" x="-2.83" y="1157.65" width="8.91" height="8.91"/>
              <path class="cls-3" d="M-274.62,4.82l95.43,95.43h72.59l32.13,32.13v141.06l53.36,53.36v50.97l150.83,150.83h751.46v5.93h15.68v-15.68h-15.68v4.38H131.95L-15.74,375.55v-50.97l-53.37-53.36v-141.06l-35.28-35.28h-72.59L-269.26,2.6v-66.86l-117.79-117.79v-319.63c0-1.48-1.2-2.68-2.68-2.68s-2.68,1.2-2.68,2.68V-179.83l117.79,117.79V4.82ZM886.55,524.22h4.95v4.95h-4.95v-4.95Z"/>
              <path class="cls-2" d="M584.35,611.77h-38.73l-113.67,113.67H122.52l-60.02,60.02H26.03l-76.64,76.64h-243.01l-58.04-58.04h-176.34l-99.9-99.9h-95.66l-39.16,39.16h-83.92l-138.84-138.84v-45.44l155.54-155.54v-243.09l-245.43-245.43c-.52-.52-1.21-.79-1.9-.79s-1.37.26-1.9.79c-1.05,1.05-1.05,2.75,0,3.79l243.86,243.86v238.65l-155.54,155.54v49.88l141.99,141.99h88.36l39.16-39.16h91.21l99.9,99.9h176.34l58.04,58.04H-48.39l76.64-76.64h36.47l60.02-60.02h309.43l113.67-113.67h38.73l74.63-74.63h249.05v5.62h15.68v-15.68h-15.68v4.7h-251.27l-74.63,74.63ZM915.61,537.81h4.95v4.95h-4.95v-4.95Z"/>
              <rect class="cls-3" x="2421.03" y="985.41" width="12.15" height="12.15"/>
              <rect class="cls-2" x="2402.17" y="985.41" width="5.63" height="12.15"/>
              <rect class="cls-3" x="2374.85" y="985.41" width="12.15" height="12.15"/>
              <rect class="cls-2" x="2355.99" y="985.41" width="5.63" height="12.15"/>
              <rect class="cls-3" x="2328.68" y="985.41" width="12.15" height="12.15"/>
              <rect class="cls-2" x="2309.82" y="985.41" width="5.63" height="12.15"/>
              <rect class="cls-3" x="2282.5" y="985.41" width="12.15" height="12.15"/>
              <rect class="cls-2" x="2263.64" y="985.41" width="5.63" height="12.15"/>
              <path class="cls-2" d="M1123.47,456.53c2.26,5.69,7.81,9.72,14.29,9.72,8.48,0,15.39-6.9,15.39-15.39s-6.9-15.39-15.39-15.39c-5.68,0-10.64,3.1-13.3,7.69-.16-.01-.32-.05-.48-.05h-47.57v-110.48l-36.33-36.33h-322.83v-81.94l-29.04-29.04h-52.66L273.37-176.85c-1.31-1.31-3.03-1.96-4.74-1.96s-3.43.65-4.74,1.96c-2.62,2.62-2.62,6.86,0,9.48l366.1,366.1h52.66l21.18,21.18v89.8h330.69l28.47,28.48v118.34h60.47ZM1137.76,446.21c2.57,0,4.66,2.09,4.66,4.66s-2.09,4.66-4.66,4.66-4.66-2.09-4.66-4.66,2.09-4.66,4.66-4.66Z"/>
              <path class="cls-2" d="M869.15,787.88c-3.88,0-7.03,3.15-7.03,7.03s3.15,7.03,7.03,7.03,7.03-3.15,7.03-7.03-3.15-7.03-7.03-7.03Z"/>
              <circle class="cls-2" cx="839.22" cy="794.91" r="7.03" transform="translate(-115.91 143.83) rotate(-9.17)"/>
              <path class="cls-2" d="M809.29,787.88c-3.88,0-7.03,3.15-7.03,7.03s3.15,7.03,7.03,7.03,7.03-3.15,7.03-7.03-3.15-7.03-7.03-7.03Z"/>
              <path class="cls-2" d="M779.35,787.88c-3.88,0-7.03,3.15-7.03,7.03s3.15,7.03,7.03,7.03,7.03-3.15,7.03-7.03-3.15-7.03-7.03-7.03Z"/>
              <path class="cls-2" d="M869.15,816.53c-3.88,0-7.03,3.15-7.03,7.03s3.15,7.03,7.03,7.03,7.03-3.15,7.03-7.03-3.15-7.03-7.03-7.03Z"/>
              <circle class="cls-2" cx="839.22" cy="823.56" r="7.03" transform="translate(-120.47 144.2) rotate(-9.17)"/>
              <path class="cls-2" d="M809.29,816.53c-3.88,0-7.03,3.15-7.03,7.03s3.15,7.03,7.03,7.03,7.03-3.15,7.03-7.03-3.15-7.03-7.03-7.03Z"/>
              <path class="cls-2" d="M779.35,816.53c-3.88,0-7.03,3.15-7.03,7.03s3.15,7.03,7.03,7.03,7.03-3.15,7.03-7.03-3.15-7.03-7.03-7.03Z"/>
              <path class="cls-2" d="M869.15,845.18c-3.88,0-7.03,3.15-7.03,7.03s3.15,7.03,7.03,7.03,7.03-3.15,7.03-7.03-3.15-7.03-7.03-7.03Z"/>
              <circle class="cls-2" cx="839.22" cy="852.21" r="7.03" transform="translate(-125.04 144.56) rotate(-9.17)"/>
              <path class="cls-2" d="M809.29,845.18c-3.88,0-7.03,3.15-7.03,7.03s3.15,7.03,7.03,7.03,7.03-3.15,7.03-7.03-3.15-7.03-7.03-7.03Z"/>
              <path class="cls-2" d="M779.35,845.18c-3.88,0-7.03,3.15-7.03,7.03s3.15,7.03,7.03,7.03,7.03-3.15,7.03-7.03-3.15-7.03-7.03-7.03Z"/>
              <path class="cls-2" d="M869.15,873.84c-3.88,0-7.03,3.15-7.03,7.03s3.15,7.03,7.03,7.03,7.03-3.15,7.03-7.03-3.15-7.03-7.03-7.03Z"/>
              <path class="cls-2" d="M839.22,873.84c-3.88,0-7.03,3.15-7.03,7.03s3.15,7.03,7.03,7.03,7.03-3.15,7.03-7.03-3.15-7.03-7.03-7.03Z"/>
              <path class="cls-2" d="M809.29,873.84c-3.88,0-7.03,3.15-7.03,7.03s3.15,7.03,7.03,7.03,7.03-3.15,7.03-7.03-3.15-7.03-7.03-7.03Z"/>
              <path class="cls-2" d="M779.35,873.84c-3.88,0-7.03,3.15-7.03,7.03s3.15,7.03,7.03,7.03,7.03-3.15,7.03-7.03-3.15-7.03-7.03-7.03Z"/>
              <path class="cls-2" d="M813.9,387.6c-2.86,0-5.18,2.32-5.18,5.18s2.32,5.18,5.18,5.18,5.18-2.32,5.18-5.18-2.32-5.18-5.18-5.18Z"/>
              <path class="cls-2" d="M791.82,387.6c-2.86,0-5.18,2.32-5.18,5.18s2.32,5.18,5.18,5.18,5.18-2.32,5.18-5.18-2.32-5.18-5.18-5.18Z"/>
              <circle class="cls-2" cx="769.73" cy="392.79" r="5.18" transform="translate(-52.76 127.7) rotate(-9.17)"/>
              <path class="cls-2" d="M747.65,387.6c-2.86,0-5.18,2.32-5.18,5.18s2.32,5.18,5.18,5.18,5.18-2.32,5.18-5.18-2.32-5.18-5.18-5.18Z"/>
              <path class="cls-2" d="M813.9,408.74c-2.86,0-5.18,2.32-5.18,5.18s2.32,5.18,5.18,5.18,5.18-2.32,5.18-5.18-2.32-5.18-5.18-5.18Z"/>
              <path class="cls-2" d="M791.82,408.74c-2.86,0-5.18,2.32-5.18,5.18s2.32,5.18,5.18,5.18,5.18-2.32,5.18-5.18-2.32-5.18-5.18-5.18Z"/>
              <circle class="cls-2" cx="769.73" cy="413.93" r="5.18" transform="translate(-56.13 127.97) rotate(-9.17)"/>
              <path class="cls-2" d="M747.65,408.74c-2.86,0-5.18,2.32-5.18,5.18s2.32,5.18,5.18,5.18,5.18-2.32,5.18-5.18-2.32-5.18-5.18-5.18Z"/>
              <path class="cls-2" d="M813.9,429.88c-2.86,0-5.18,2.32-5.18,5.18s2.32,5.18,5.18,5.18,5.18-2.32,5.18-5.18-2.32-5.18-5.18-5.18Z"/>
              <path class="cls-2" d="M791.82,429.88c-2.86,0-5.18,2.32-5.18,5.18s2.32,5.18,5.18,5.18,5.18-2.32,5.18-5.18-2.32-5.18-5.18-5.18Z"/>
              <circle class="cls-2" cx="769.73" cy="435.07" r="5.18" transform="translate(-59.5 128.24) rotate(-9.17)"/>
              <path class="cls-2" d="M747.65,429.88c-2.86,0-5.18,2.32-5.18,5.18s2.32,5.18,5.18,5.18,5.18-2.32,5.18-5.18-2.32-5.18-5.18-5.18Z"/>
              <path class="cls-2" d="M813.9,451.02c-2.86,0-5.18,2.32-5.18,5.18s2.32,5.18,5.18,5.18,5.18-2.32,5.18-5.18-2.32-5.18-5.18-5.18Z"/>
              <path class="cls-2" d="M791.82,451.02c-2.86,0-5.18,2.32-5.18,5.18s2.32,5.18,5.18,5.18,5.18-2.32,5.18-5.18-2.32-5.18-5.18-5.18Z"/>
              <path class="cls-2" d="M769.73,451.02c-2.86,0-5.18,2.32-5.18,5.18s2.32,5.18,5.18,5.18,5.18-2.32,5.18-5.18-2.32-5.18-5.18-5.18Z"/>
              <path class="cls-2" d="M747.65,451.02c-2.86,0-5.18,2.32-5.18,5.18s2.32,5.18,5.18,5.18,5.18-2.32,5.18-5.18-2.32-5.18-5.18-5.18Z"/>
              <path class="cls-2" d="M1005.05,387.6c-2.86,0-5.18,2.32-5.18,5.18s2.32,5.18,5.18,5.18,5.18-2.32,5.18-5.18-2.32-5.18-5.18-5.18Z"/>
              <path class="cls-2" d="M982.97,387.6c-2.86,0-5.18,2.32-5.18,5.18s2.32,5.18,5.18,5.18,5.18-2.32,5.18-5.18-2.32-5.18-5.18-5.18Z"/>
              <path class="cls-2" d="M960.88,387.6c-2.86,0-5.18,2.32-5.18,5.18s2.32,5.18,5.18,5.18,5.18-2.32,5.18-5.18-2.32-5.18-5.18-5.18Z"/>
              <circle class="cls-2" cx="938.8" cy="392.79" r="5.18"/>
              <path class="cls-2" d="M1005.05,408.74c-2.86,0-5.18,2.32-5.18,5.18s2.32,5.18,5.18,5.18,5.18-2.32,5.18-5.18-2.32-5.18-5.18-5.18Z"/>
              <path class="cls-2" d="M982.97,408.74c-2.86,0-5.18,2.32-5.18,5.18s2.32,5.18,5.18,5.18,5.18-2.32,5.18-5.18-2.32-5.18-5.18-5.18Z"/>
              <path class="cls-2" d="M960.88,408.74c-2.86,0-5.18,2.32-5.18,5.18s2.32,5.18,5.18,5.18,5.18-2.32,5.18-5.18-2.32-5.18-5.18-5.18Z"/>
              <circle class="cls-2" cx="938.8" cy="413.93" r="5.18"/>
              <path class="cls-2" d="M1005.05,429.88c-2.86,0-5.18,2.32-5.18,5.18s2.32,5.18,5.18,5.18,5.18-2.32,5.18-5.18-2.32-5.18-5.18-5.18Z"/>
              <path class="cls-2" d="M982.97,429.88c-2.86,0-5.18,2.32-5.18,5.18s2.32,5.18,5.18,5.18,5.18-2.32,5.18-5.18-2.32-5.18-5.18-5.18Z"/>
              <path class="cls-2" d="M960.88,429.88c-2.86,0-5.18,2.32-5.18,5.18s2.32,5.18,5.18,5.18,5.18-2.32,5.18-5.18-2.32-5.18-5.18-5.18Z"/>
              <circle class="cls-2" cx="938.8" cy="435.07" r="5.18"/>
              <path class="cls-2" d="M1005.05,451.02c-2.86,0-5.18,2.32-5.18,5.18s2.32,5.18,5.18,5.18,5.18-2.32,5.18-5.18-2.32-5.18-5.18-5.18Z"/>
              <path class="cls-2" d="M982.97,451.02c-2.86,0-5.18,2.32-5.18,5.18s2.32,5.18,5.18,5.18,5.18-2.32,5.18-5.18-2.32-5.18-5.18-5.18Z"/>
              <path class="cls-2" d="M960.88,451.02c-2.86,0-5.18,2.32-5.18,5.18s2.32,5.18,5.18,5.18,5.18-2.32,5.18-5.18-2.32-5.18-5.18-5.18Z"/>
              <path class="cls-2" d="M938.8,451.02c-2.86,0-5.18,2.32-5.18,5.18s2.32,5.18,5.18,5.18,5.18-2.32,5.18-5.18-2.32-5.18-5.18-5.18Z"/>
              <path class="cls-2" d="M668.07,387.6c-2.86,0-5.18,2.32-5.18,5.18s2.32,5.18,5.18,5.18,5.18-2.32,5.18-5.18-2.32-5.18-5.18-5.18Z"/>
              <path class="cls-2" d="M645.99,387.6c-2.86,0-5.18,2.32-5.18,5.18s2.32,5.18,5.18,5.18,5.18-2.32,5.18-5.18-2.32-5.18-5.18-5.18Z"/>
              <circle class="cls-2" cx="623.9" cy="392.79" r="5.18"/>
              <circle class="cls-2" cx="601.82" cy="392.79" r="5.18" transform="translate(6.71 795.67) rotate(-67.23)"/>
              <path class="cls-2" d="M668.07,408.74c-2.86,0-5.18,2.32-5.18,5.18s2.32,5.18,5.18,5.18,5.18-2.32,5.18-5.18-2.32-5.18-5.18-5.18Z"/>
              <path class="cls-2" d="M645.99,408.74c-2.86,0-5.18,2.32-5.18,5.18s2.32,5.18,5.18,5.18,5.18-2.32,5.18-5.18-2.32-5.18-5.18-5.18Z"/>
              <circle class="cls-2" cx="623.9" cy="413.93" r="5.18"/>
              <circle class="cls-2" cx="601.82" cy="413.93" r="5.18" transform="translate(-12.78 808.63) rotate(-67.23)"/>
              <path class="cls-2" d="M668.07,429.88c-2.86,0-5.18,2.32-5.18,5.18s2.32,5.18,5.18,5.18,5.18-2.32,5.18-5.18-2.32-5.18-5.18-5.18Z"/>
              <path class="cls-2" d="M645.99,429.88c-2.86,0-5.18,2.32-5.18,5.18s2.32,5.18,5.18,5.18,5.18-2.32,5.18-5.18-2.32-5.18-5.18-5.18Z"/>
              <circle class="cls-2" cx="623.9" cy="435.07" r="5.18"/>
              <circle class="cls-2" cx="601.82" cy="435.07" r="5.18" transform="translate(-32.28 821.58) rotate(-67.23)"/>
              <path class="cls-2" d="M668.07,451.02c-2.86,0-5.18,2.32-5.18,5.18s2.32,5.18,5.18,5.18,5.18-2.32,5.18-5.18-2.32-5.18-5.18-5.18Z"/>
              <path class="cls-2" d="M645.99,451.02c-2.86,0-5.18,2.32-5.18,5.18s2.32,5.18,5.18,5.18,5.18-2.32,5.18-5.18-2.32-5.18-5.18-5.18Z"/>
              <path class="cls-2" d="M623.9,451.02c-2.86,0-5.18,2.32-5.18,5.18s2.32,5.18,5.18,5.18,5.18-2.32,5.18-5.18-2.32-5.18-5.18-5.18Z"/>
              <path class="cls-2" d="M601.82,451.02c-2.86,0-5.18,2.32-5.18,5.18s2.32,5.18,5.18,5.18,5.18-2.32,5.18-5.18-2.32-5.18-5.18-5.18Z"/>
              <path class="cls-2" d="M1889.1-125.65l-176.36,176.35h-89.54l-21.07,21.07v125.98l-48.28,48.28v190.79h-5.29v15.68h15.68v-15.68h-5.02v-188.57l48.28-48.28v-125.98l17.93-17.93h89.54l179.5-179.5v-37.69l-72.1-72.1v-197.18c0-1.48-1.2-2.68-2.68-2.68s-2.68,1.2-2.68,2.68v199.4l72.1,72.1v33.24ZM1558.88,447.14h-4.95v-4.95h4.95v4.95Z"/>
              <path class="cls-2" d="M1903.01-119.89l-245.71,245.71v60.53l-75.63,75.63v174.85h-5.14v15.68h15.68v-15.68h-5.17v-172.63l75.63-75.63v-60.53l245.71-245.7v-49.21l-72.1-72.1v-191.42c0-1.48-1.2-2.68-2.68-2.68s-2.68,1.2-2.68,2.68v193.64l72.1,72.1v44.76ZM1586.84,447.14h-4.95v-4.95h4.95v4.95Z"/>
              <path class="cls-2" d="M2035.75-178.23l-106.1,106.1v25.39l-39.66,39.66h-60.46l-37.87,37.87v60.53l-182.18,182.18v163.33h-5.92v15.68h15.68v-15.68h-4.39v-161.11l182.18-182.18v-60.53l34.72-34.73h60.46l42.8-42.8v-25.39l102.95-102.95h18.09l309.84-309.84c1.05-1.05,1.05-2.75,0-3.79-.52-.52-1.21-.79-1.9-.79s-1.37.26-1.9.79l-308.27,308.27h-18.09ZM1613.87,447.14h-4.95v-4.95h4.95v4.95Z"/>
              <path class="cls-2" d="M2027.09-130.23l-52.09,52.09v25.39l-73.48,73.48h-60.46l-21.58,21.58v60.53l-182.18,182.18v151.81h-4.83v15.68h15.68v-15.68h-5.48v-149.59l182.18-182.18v-60.53l18.43-18.43h60.46l76.62-76.62v-25.39l48.95-48.95h18.09l338.17-338.17c1.05-1.05,1.05-2.75,0-3.79-.52-.52-1.21-.79-1.9-.79s-1.37.26-1.9.79l-336.6,336.6h-18.09ZM1642.78,447.14h-4.95v-4.95h4.95v4.95Z"/>
              <path class="cls-2" d="M1665.11,436.83h-5.85v15.68h15.68v-15.68h-4.46v-138.06l753.02-753.02c1.05-1.05,1.05-2.75,0-3.79-.52-.52-1.21-.79-1.9-.79s-1.37.26-1.9.79l-754.6,754.6v140.29ZM1669.57,447.14h-4.95v-4.95h4.95v4.95Z"/>
              <path class="cls-2" d="M2287.75-306.43l-508.96,508.96v31.86l-85.87,85.87v116.57h-5.23v15.68h15.68v-15.68h-5.09v-114.35l85.87-85.87v-31.86l505.81-505.81h59.14l176.98-176.98c1.05-1.05,1.05-2.75,0-3.79-.52-.52-1.21-.79-1.9-.79s-1.37.26-1.9.79l-175.41,175.41h-59.14ZM1698.01,447.14h-4.95v-4.95h4.95v4.95Z"/>
              <path class="cls-3" d="M1418.51-156.01l52.72,52.72V-27.22l-19.85,19.85v162.44l11.68,11.68v15.26l-20.45,20.45v45.07l-37.87,37.87v120.25h-4.68v15.68h15.68v-15.68h-5.64v-118.03l37.87-37.87v-45.07l20.45-20.45v-19.7l-11.68-11.68V-5.15l19.85-19.85v-80.51l-52.72-52.72v-68.35l72.47-72.47v-131.34c0-1.48-1.2-2.68-2.68-2.68s-2.68,1.2-2.68,2.68v129.12l-72.47,72.47v72.79ZM1410.37,415.97h-4.95v-4.95h4.95v4.95Z"/>
              <path class="cls-2" d="M1432.41-179.57l52.72,52.72V-21.46l-19.85,19.85v127.25l25.11,25.11v21.09l-33.88,33.88v47.58l-37.87,37.87v145.67h-5.07v15.68h15.68v-15.68h-5.25v-143.44l37.87-37.87v-47.58l33.88-33.88v-25.53l-25.11-25.11V.61l19.85-19.85v-109.83l-52.72-52.72v-39.03l72.47-72.47v-67.41l68.66-68.66c1.05-1.05,1.05-2.75,0-3.79-.52-.52-1.21-.79-1.9-.79s-1.37.26-1.9.79l-70.23,70.23v67.41l-72.47,72.47v43.47ZM1423.89,447.14h-4.95v-4.95h4.95v4.95Z"/>
              <path class="cls-2" d="M1524.35-292.73l-36.93,36.93v64.56l16.87,16.87V177.59l-33.88,33.89v225.35h-5.99v15.68h15.68v-15.68h-4.32v-223.13l33.88-33.89V-176.59l-16.87-16.87v-60.11l36.93-36.93v-67.84l88.18-88.18c1.05-1.05,1.05-2.75,0-3.79-.52-.52-1.21-.79-1.9-.79s-1.37.26-1.9.79l-89.75,89.75v67.84ZM1474.74,447.14h-4.95v-4.95h4.95v4.95Z"/>
              <path class="cls-2" d="M1546.51,48.73v125.98l-48.28,48.28v213.83h-5.44v15.68h15.68v-15.68h-4.87v-211.61l48.28-48.28V50.96L1602.39.45h34.05l65.9-65.91v-83.71l57.81-57.81v-215.85c0-1.48-1.2-2.68-2.68-2.68s-2.68,1.2-2.68,2.68v213.63l-57.81,57.81v83.71l-62.76,62.77h-34.05l-53.65,53.65ZM1503.1,447.14h-4.95v-4.95h4.95v4.95Z"/>
              <path class="cls-3" d="M1875.19-153.13v21.72l-168.21,168.21h-89.54l-29.22,29.22v125.98l-48.28,48.28v165.38h-5.25v15.68h15.68v-15.68h-5.06v-163.16l48.28-48.28v-125.98l26.07-26.07h89.54l171.35-171.35v-26.17l-70.94-70.94v-11.52h-15.68v15.68h12.24l69.01,69.01ZM1545.01,415.97h-4.95v-4.95h4.95v4.95ZM1799.3-232.45h4.95v3.97c-.12.09-.26.14-.37.25-.22.22-.36.47-.49.73h-4.09v-4.95Z"/>
              <path class="cls-3" d="M1643.24,188.33c.32-.32.51-.71.63-1.12h10.43v-15.68h-15.68v13.82l-70.87,70.87v149.44h-5.18v15.68h15.68v-15.68h-5.14v-147.22l70.12-70.12ZM1644,176.9h4.95v4.95h-4.95v-4.95ZM1572.9,415.97h-4.95v-4.95h4.95v4.95Z"/>
              <path class="cls-3" d="M2002.49-199.7l-305.65,305.65v60.53l-101.26,101.26v137.91h-5.69v15.68h15.68v-15.68h-4.63v-135.69l101.26-101.26v-60.53l305.65-305.65v-16.85l231.11-231.11c1.05-1.05,1.05-2.75,0-3.79-.52-.52-1.21-.79-1.9-.79s-1.37.26-1.9.79l-232.68,232.68v16.85ZM1600.2,415.97h-4.95v-4.95h4.95v4.95Z"/>
              <path class="cls-3" d="M2021.33-144.14l-77.76,77.77v25.39l-47.81,47.8h-60.46l-29.72,29.72v60.53l-182.18,182.18v126.4h-5.61v15.68h15.68v-15.68h-4.7v-124.17l182.18-182.18v-60.53l26.58-26.58h60.46l50.95-50.95v-25.39l74.62-74.62h18.09l334.09-334.09c1.05-1.05,1.05-2.75,0-3.79-.52-.52-1.21-.79-1.9-.79s-1.37.26-1.9.79l-332.52,332.52h-18.09ZM1628.09,415.97h-4.95v-4.95h4.95v4.95Z"/>
              <path class="cls-3" d="M2032.85-116.32l-26.14,26.14v25.39l-99.43,99.43h-60.46l-13.43,13.43v60.53l-182.18,182.18v114.87h-5.53v15.68h15.68v-15.68h-4.78v-112.65l182.18-182.18v-60.53l10.29-10.29h60.46l102.57-102.58v-25.39l23-22.99h18.09l342.24-342.24c1.05-1.05,1.05-2.75,0-3.79-.52-.52-1.21-.79-1.9-.79s-1.37.26-1.9.79l-340.67,340.67h-18.09ZM1655.98,415.97h-4.95v-4.95h4.95v4.95Z"/>
              <path class="cls-3" d="M1764.49,236.61c.19-.19.31-.43.43-.65h8.75v-15.68h-15.68v15.23l-78.99,78.99v91.16h-5.46v15.68h15.68v-15.68h-4.85v-88.93l80.11-80.11ZM1763.37,225.64h4.95v4.95h-4.95v-4.95ZM1683.87,415.97h-4.95v-4.95h4.95v4.95Z"/>
              <path class="cls-3" d="M1538.26-286.97l-36.93,36.93v37.19l16.87,16.88V183.35l-33.88,33.89v188.42h-5.05v15.68h15.68v-15.68h-5.26v-186.2l33.88-33.89V-198.2l-16.87-16.88v-32.75l36.93-36.93v-67.84l84.1-84.1c1.05-1.05,1.05-2.75,0-3.79-.52-.52-1.21-.79-1.9-.79s-1.37.26-1.9.79l-85.68,85.68v67.84ZM1489.58,415.97h-4.95v-4.95h4.95v4.95Z"/>
              <path class="cls-3" d="M1710.88-61.92l-70.91,70.91h-34.05l-45.51,45.51v125.98l-48.28,48.28v176.9h-4.98v15.68h15.68v-15.68h-5.34v-174.68l48.28-48.28V56.72l42.36-42.36h34.05l74.05-74.05v-83.71l57.81-57.81v-221.61c0-1.48-1.2-2.68-2.68-2.68s-2.68,1.2-2.68,2.68v219.39l-57.81,57.81V-61.92ZM1517.47,415.97h-4.95v-4.95h4.95v4.95Z"/>
              <path class="cls-2" d="M1411.04,248.4h-10.98v15.68h15.68v-12.78l14.41-14.41v-29.35h-20.44l-34.6,34.6v194.7h-6.29v15.68h15.68v-15.68h-4.02v-192.48l31.46-31.46h12.86v21.77l-13.74,13.74ZM1405.42,258.71v-4.95h4.8s.09.07.14.1v4.85h-4.95ZM1379.12,447.14h-4.95v-4.95h4.95v4.95Z"/>
              <path class="cls-2" d="M1390.49-136.05l40.35,41.61v230.39l-100.43,100.43v200.46h-5.19v15.68h15.68v-15.68h-5.12v-198.24l100.43-100.43V-96.62l-40.34-41.6.26-97.65,71.63-71.63v-147.74c0-1.48-1.2-2.68-2.68-2.68s-2.68,1.2-2.68,2.68v145.52l-71.62,71.62-.28,102.04ZM1335.53,447.14h-4.95v-4.95h4.95v4.95Z"/>
              <path class="cls-3" d="M1222.46,155.06l21.07,21.07c.35.35.78.54,1.22.65v9.95h15.68v-15.68h-14.39l-18.22-18.22V-104.88l15.36-15.36v-241.38c0-1.48-1.2-2.68-2.68-2.68s-2.68,1.2-2.68,2.68V-122.47l-15.36,15.36V155.06ZM1250.12,176.43h4.95v4.95h-4.95v-4.95Z"/>
              <path class="cls-2" d="M1223.92-354.75v226.53l-15.36,15.36V160.82l94.04,94.04v181.97h-5.5v15.68h15.67v-15.68h-4.81v-184.19l-94.04-94.04V-110.65l15.36-15.36v-230.97l-88.7-88.7c-.52-.52-1.21-.79-1.9-.79s-1.37.26-1.9.79c-1.05,1.05-1.05,2.75,0,3.79l87.13,87.13ZM1307.41,447.14h-4.95v-4.95h4.95v4.95Z"/>
              <path class="cls-3" d="M1194.65-346.11V166.58l94.04,94.04v145.03h-5.81v15.68h15.68v-15.68h-4.5v-147.25l-94.04-94.04V-348.33l-70.82-70.82c-.52-.52-1.21-.79-1.9-.79s-1.37.26-1.9.79c-1.05,1.05-1.05,2.74,0,3.79l69.25,69.25ZM1293.19,415.97h-4.95v-4.95h4.95v4.95Z"/>
              <path class="cls-2" d="M846.6-367.22h83.23l17.28-17.28h83.16l97.22,97.22v118l-31.58,31.58V43.81l84.82,84.82v43.71l94.04,94.04v170.45h-5.1v15.68h15.68v-15.68h-5.21v-172.67l-94.04-94.04v-43.71l-84.82-84.82v-177.08l31.58-31.58v-122.44l-100.37-100.36h-87.6l-17.28,17.28h-78.79l-78.6-78.6c-.52-.52-1.21-.79-1.9-.79s-1.37.26-1.9.79c-1.05,1.05-1.05,2.75,0,3.79l80.17,80.18ZM1279.99,447.14h-4.95v-4.95h4.95v4.95Z"/>
              <path class="cls-3" d="M825.36-343.74h199.16l89.08,89.08v46.85l-31.58,31.58V76.36l84.82,84.82v45.3l94.04,94.04v105.14h-5.42v15.68h15.68v-15.68h-4.9v-107.36l-94.04-94.04v-45.3l-84.82-84.82v-248.15l31.58-31.58v-51.29l-92.22-92.22h-199.16l-95.39-95.39c-.52-.52-1.21-.79-1.9-.79s-1.37.26-1.9.79c-1.05,1.05-1.05,2.75,0,3.79l96.96,96.96ZM1265.77,415.97h-4.95v-4.95h4.95v4.95Z"/>
              <path class="cls-2" d="M819.6-329.83h199.16l80.93,80.93v35.33l-31.58,31.58V82.12l84.82,84.82v45.3l94.04,94.04v130.55h-5.41v15.68h15.68v-15.68h-4.9v-132.77l-94.04-94.04v-45.3l-84.82-84.82V-179.77l31.58-31.58v-39.77l-84.07-84.07h-199.16l-99.46-99.46c-.52-.52-1.21-.79-1.9-.79s-1.37.26-1.9.79c-1.05,1.05-1.05,2.75,0,3.79l101.03,101.03ZM1251.87,447.14h-4.95v-4.95h4.95v4.95Z"/>
              <path class="cls-3" d="M621.45,37.42l174.03,174.03h337l100.59,100.59v93.62h-5.49v15.68h15.68v-15.68h-4.82v-95.84l-103.73-103.73h-337l-170.89-170.89v-125.47h5.54v-15.68h-15.68v15.68h4.77V37.42ZM1237.88,415.97h-4.95v-4.95h4.95v4.95ZM622.04-100.59h4.95v4.95h-4.95v-4.95Z"/>
              <path class="cls-2" d="M607.54-15.96v59.14l182.18,182.18h337l92.44,92.44v119.03h-5.96v15.68h15.68v-15.68h-4.35v-121.25l-95.59-95.59h-337l-179.03-179.03V-18.18L141.84-489.24c-.52-.52-1.21-.79-1.9-.79s-1.37.26-1.9.79c-1.05,1.05-1.05,2.75,0,3.79L607.54-15.96ZM1223.51,447.14h-4.95v-4.95h4.95v4.95Z"/>
              <path class="cls-3" d="M593.63-10.2v59.14l190.32,190.32h337l84.3,84.3v82.1h-5.1v15.68h15.68v-15.68h-5.21v-84.32l-87.44-87.44h-337l-187.18-187.18V-12.42L132-479.41c-.52-.52-1.21-.79-1.9-.79s-1.37.26-1.9.79c-1.05,1.05-1.05,2.75,0,3.79L593.63-10.2ZM1210.46,415.97h-4.95v-4.95h4.95v4.95Z"/>
              <path class="cls-2" d="M1703.01,678.74h15.68v-5.54h243.83l242.17-242.17h325.52l112.49-112.49h324.18l18.42,18.42h400.42v6.49h15.68v-15.68h-15.68v3.82h-398.2l-18.42-18.42h-328.62l-112.49,112.49h-325.52l-242.17,242.17h-241.61v-4.77h-15.68v15.68ZM3391.07,333.14h4.95v4.95h-4.95v-4.95ZM1708.37,668.43h4.95v4.95h-4.95v-4.95Z"/>
              <path class="cls-3" d="M1734.57,649v15.68h15.68v-5.38h206.51l242.17-242.17h325.52l112.49-112.49h777.39l79.31,79.31h185.71c1.48,0,2.68-1.2,2.68-2.68s-1.2-2.68-2.68-2.68h-183.49l-79.31-79.31h-781.83l-112.49,112.49h-325.52l-242.17,242.17h-204.29v-4.93h-15.68ZM1744.88,659.31h-4.95v-4.95h4.95v4.95Z"/>
              <path class="cls-3" d="M1734.57,621.5v15.68h15.68v-5.7h194.99l270.57-270.57h95.64l185.65-185.65h103.36l86.68,86.68h734.64l73.99-73.99h183.59c1.48,0,2.68-1.2,2.68-2.68s-1.2-2.68-2.68-2.68h-185.81l-73.99,73.99h-730.2l-86.68-86.68h-107.8l-185.65,185.65h-95.64l-270.57,270.57h-192.77v-4.62h-15.68ZM1744.88,631.81h-4.95v-4.95h4.95v4.95Z"/>
              <path class="cls-3" d="M1734.57,594v15.68h15.68v-6.01h183.47l219.31-219.31v-56.3l65.82-65.82v-43.45l96.21-96.21h34.54l63.5,63.5c.06.06.13.08.19.13v11.32h15.68v-15.68h-12.51l-64.63-64.63h-38.98l-99.35,99.36v43.45l-65.82,65.82v56.3l-216.16,216.16h-181.24v-4.3h-15.68ZM2418.64,187.21h4.95v4.95h-4.95v-4.95ZM1744.88,604.32h-4.95v-4.95h4.95v4.95Z"/>
              <path class="cls-3" d="M1734.57,566.51v15.68h15.68v-6.33h171.95l203.01-203.02v-56.3l65.82-65.82v-119.76h4.97v-15.68h-15.68v15.68h5.34v117.54l-65.82,65.82v56.3l-199.87,199.87h-169.72v-3.99h-15.68ZM2185.68,120.65h4.95v4.95h-4.95v-4.95ZM1744.88,576.82h-4.95v-4.95h4.95v4.95Z"/>
              <path class="cls-3" d="M1734.57,539.01v15.68h15.68v-6.64h160.42l186.72-186.72v-56.3l65.82-65.82V53.89l97.72-97.72h107.44l30.53-30.53h214.96l15.52,15.52h554.78l32.06,32.06h207.77l31.02-31.02h224.33c1.48,0,2.68-1.2,2.68-2.68s-1.2-2.68-2.68-2.68h-226.55l-31.02,31.02h-203.33l-32.06-32.06h-554.78l-15.52-15.52h-219.4l-30.53,30.53h-107.44l-100.86,100.86v185.31l-65.82,65.82v56.3l-183.58,183.58h-158.2v-3.67h-15.68ZM1744.88,549.32h-4.95v-4.95h4.95v4.95Z"/>
              <path class="cls-2" d="M1703.01,651.55h15.68v-6.16h232.31l242.17-242.17h325.52l112.49-112.49h788.91l79.31,79.31h179.95c1.48,0,2.68-1.2,2.68-2.68s-1.2-2.68-2.68-2.68h-177.73l-79.31-79.31h-793.35l-112.49,112.49h-325.52l-242.17,242.17h-230.09v-4.15h-15.68v15.68ZM1708.37,641.24h4.95v4.95h-4.95v-4.95Z"/>
              <path class="cls-2" d="M1703.01,622.8h15.68v-5.26h219.09l229.76-228.97v-56.08l65.79-65.56v-42.74l83.03-83.03h29.45l27.74,27.74-35.42,35.42h-12.52v15.68h15.68v-11.24l39.85-39.85-33.1-33.1h-33.89l-86.17,86.17v42.74l-65.79,65.56v56.08l-226.61,225.83h-216.87v-5.05h-15.68v15.67ZM2335.91,214.63h-4.95v-4.95h4.95v4.95ZM1708.37,612.49h4.95v4.94h-4.95v-4.94Z"/>
              <path class="cls-2" d="M1703.01,595.31h15.68v-5.54h209.27l211.16-211.16v-56.3l63.79-63.79v-51.41l117.59-117.59h195.32l50.35,50.35h482.85l21.63-21.63h88.78l75.67-75.67h131.27l76.47,76.47h236.52c1.48,0,2.68-1.2,2.68-2.68s-1.2-2.68-2.68-2.68h-234.3l-76.47-76.47h-135.72l-75.67,75.67h-88.78l-21.63,21.63h-478.4l-50.35-50.35h-199.76l-120.73,120.73v51.41l-63.79,63.79v56.3l-208.02,208.02h-207.04v-4.77h-15.68v15.68ZM1708.37,584.99h4.95v4.95h-4.95v-4.95Z"/>
              <path class="cls-2" d="M1703.01,552.76v15.68h15.68v-6.48h197.75l194.87-194.87v-56.3l65.82-65.82V59.65l89.57-89.57h107.44l30.53-30.53h203.44l15.52,15.52h554.78l32.06,32.06h100.88v5.72h15.68v-15.68h-15.68v4.59h-98.66l-32.06-32.06h-554.78l-15.52-15.52h-207.88l-30.53,30.53h-107.44l-92.72,92.72v185.31l-65.82,65.82v56.3l-191.72,191.73h-195.52v-3.83h-15.68ZM3316.7-17.47h4.95v4.95h-4.95v-4.95ZM1713.32,563.07h-4.95v-4.95h4.95v4.95Z"/>
              <path class="cls-2" d="M1852.74-134.02v-15.68h-10.72c-.07-.09-.1-.19-.18-.27l-24.14-24.14h-58.66l-34.25,34.24V-56.16l-79.06,79.05h-34.05l-37.36,37.36v125.98l-48.28,48.28v202.31h-4.9v15.68h15.68v-15.68h-5.41v-200.09l48.28-48.28V62.48l34.22-34.22h34.05l82.2-82.2v-83.71l31.1-31.1h54.21l21.59,21.59v13.14h15.68ZM1531.46,447.14h-4.95v-4.95h4.95v4.95ZM1847.37-139.39h-4.95v-4.95h4.95v4.95Z"/>
              <path class="cls-3" d="M1406.62,179.83l-62.3,62.3v163.53h-4.72v15.68h15.68v-15.68h-5.59v-161.3l58.08-58.08h14.53v-15.68h-15.68v9.23ZM1349.9,415.97h-4.95v-4.95h4.95v4.95ZM1411.98,175.96h4.95v4.95h-4.95v-4.95Z"/>
              <path class="cls-3" d="M1326.91,405.66h-5.05v-172.82l79.12-79.12V-109.63l-18.77-18.77v-136.71l71.62-71.63v-118.51c0-1.48-1.2-2.68-2.68-2.68s-2.68,1.2-2.68,2.68v116.28l-71.62,71.63V-126.17l18.77,18.77V151.49l-79.12,79.12v175.05h-5.26v15.68h15.68v-15.68ZM1321.55,415.97h-4.95v-4.95h4.95v4.95Z"/>
              <path class="cls-2" d="M646.88-53.71v-15.68h-15.68v15.68h4.15V31.66l165.88,165.88h43.22v-30.26h5.77v-15.68h-15.68v15.68h4.54v24.89h-35.63L640.72,29.44V-53.71h6.16ZM839.91,156.98h4.95v4.95h-4.95v-4.95ZM636.57-64.03h4.95v4.95h-4.95v-4.95Z"/>
              <path class="cls-3" d="M582.73,558.93h-36.71l-129.43,129.43H-41.21l-38.89,38.89h-20.46l-57.11-57.11h-267.74l-83.23-83.24h-125.77l-67.59-67.59v-157.11h5.56v-15.68h-15.68v15.68h4.76v159.33l70.73,70.73h125.77l83.23,83.24H-159.88l57.11,57.11h24.9l38.89-38.89h457.8l129.43-129.43h34.49v6.02h15.68v-15.68h-15.68v4.3ZM-706.74,351.89h4.95v4.95h-4.95v-4.95ZM588.1,560h4.95v4.95h-4.95v-4.95Z"/>
              <path class="cls-3" d="M896.86,627.33v-15.68h-15.68v5.68h-166.78l-148.91,148.91v15.22l-13.5,13.5H151.33L14.67,931.63h-699.52l-58.04-58.04h-177.45c-1.48,0-2.68,1.2-2.68,2.68s1.2,2.68,2.68,2.68h175.23l58.04,58.04H16.89l136.66-136.66h400.67l16.64-16.64v-15.22l145.76-145.76h164.56v4.63h15.68ZM886.55,617.02h4.95v4.95h-4.95v-4.95Z"/>
              <path class="cls-3" d="M896.86,682.65v-15.68h-15.68v6h-106.63l-203.28,203.28v26.73l-66.02,66.02v188.35l-88.15,88.15h-122.12l-33.72,33.72H-491.31c-1.48,0-2.68,1.2-2.68,2.68s1.2,2.68,2.68,2.68H263.48l33.72-33.72h122.12l91.29-91.29v-188.35l66.02-66.02v-26.73l200.14-200.14h104.41v4.31h15.68ZM886.55,672.33h4.95v4.95h-4.95v-4.95Z"/>
              <path class="cls-2" d="M925.93,570.88h-15.68v4.74h-55.84l-10.67-10.67h-135.95l-74.63,74.63h-46.55l-29.6,29.6v46.55l-37.52,37.52H134.04l-60.02,60.02h-36.47l-76.64,76.64h-266.05l-58.04-58.04h-176.34l-99.9-99.91h-72.61l-39.16,39.16h-106.96l-198.61-198.61c-1.05-1.05-2.75-1.05-3.79,0-1.05,1.05-1.05,2.75,0,3.79l200.18,200.18h111.4l39.16-39.16h68.17l99.9,99.9h176.34l58.04,58.04H-36.87l76.64-76.64h36.47l60.02-60.02h385.45l40.66-40.66v-46.55l26.46-26.46h46.55l74.63-74.63h131.51l10.67,10.67h58.06v5.57h15.68v-15.68ZM920.56,581.19h-4.95v-4.95h4.95v4.95Z"/>
              <path class="cls-2" d="M925.93,598.38h-15.68v5.06h-201.6l-177.63,177.63H145.57L8.91,917.72h-688l-58.04-58.04h-183.21c-1.48,0-2.68,1.2-2.68,2.68s1.2,2.68,2.68,2.68h180.99l58.04,58.04H11.13l136.66-136.66h385.45l177.63-177.63h199.38v5.26h15.68v-15.68ZM920.56,608.69h-4.95v-4.95h4.95v4.95Z"/>
              <path class="cls-2" d="M925.93,641.87v-15.68h-15.68v5.06h-152.98l-198,198h-101.19l-28.79,28.79h-74.9l-195.86,195.86h-93.55l-88.39-88.39h-652.86l-89.74,89.74h-126.26c-1.48,0-2.68,1.2-2.68,2.68s1.2,2.68,2.68,2.68h128.48l89.74-89.74H-25.64l88.39,88.39h98l195.86-195.86h74.9l28.79-28.79h101.19l198-198h150.75v5.25h15.68ZM915.61,631.55h4.95v4.95h-4.95v-4.95Z"/>
              <path class="cls-2" d="M3434.51,35.34v-15.68h-15.68v3.82h-223.44l-32.06-32.06h-554.78l-15.52-15.52h-173.32l-30.53,30.53h-107.44l-68.28,68.28v63.07l17.3,17.3,73.8-73.8h13.76v-15.68h-15.68v10.16c-.16.1-.33.17-.47.31l-71.42,71.42-11.93-11.93v-58.63l65.14-65.14h107.44l30.53-30.53h168.87l15.52,15.52h554.78l32.06,32.06h225.66v6.5h15.68ZM2308.02,70.96h4.95v4.95h-4.95v-4.95ZM3424.2,25.03h4.95v4.95h-4.95v-4.95Z"/>
              <path class="cls-3" d="M3022.04,97.16h127.64l41.74-41.74v-16.65l-33.62-33.51h-554.57l-15.51-15.46h-161.73l-30.52,30.41h-107.4l-60.11,59.9v33.29h-4.52v15.68h15.68v-15.68h-5.79v-31.06l56.97-56.76h107.4l30.52-30.41h157.3l15.51,15.46h554.57l30.47,30.37v12.2l-38.6,38.6h-125.42v-4.01h-15.68v15.68h15.68v-6.3ZM2233.75,123.72h-4.95v-4.95h1.55c.1.01.18.06.29.06s.19-.05.29-.06h2.82v4.95ZM3016.67,98.1h-4.95v-4.95h4.95v4.95Z"/>
              <path class="cls-3" d="M2202.25,869.35h380.27l33.86,33.86h319.45l30-30h128.21l191.23-191.23h68l40.52,40.52h275.63c1.48,0,2.68-1.2,2.68-2.68s-1.2-2.68-2.68-2.68h-273.41l-40.52-40.52h-72.44l-191.23,191.23h-128.21l-30,30h-315.01l-33.86-33.86h-382.49v-3.59h-15.68v15.68h15.68v-6.72ZM2196.88,870.7h-4.95v-4.95h4.95v4.95Z"/>
              <path class="cls-2" d="M1974.71,844.93v15.68h15.68v-5.16h597.89l33.86,33.86h307.93l30-30h128.21l61.65-61.65h-176.56l-39.69,39.69h76.91v5.6h15.68v-15.68h-15.68v4.71h-63.97l28.96-28.96h161.39l-50.92,50.92h-128.21l-30,30h-303.49l-33.86-33.86h-600.11v-5.15h-15.68ZM3015.94,832.64h4.95v4.95h-4.95v-4.95ZM1985.02,855.24h-4.95v-4.95h4.95v4.95Z"/>
              <path class="cls-2" d="M1788.63,817.27v15.68h15.68v-5.32h721.1l-33.18-33.18h-687.92v-4.37h-15.68v15.68h15.68v-5.95h685.7l22.45,22.45h-708.15v-4.99h-15.68ZM1798.94,800.4h-4.95v-4.95h4.95v4.95ZM1798.94,827.58h-4.95v-4.95h4.95v4.95Z"/>
              <path class="cls-2" d="M1788.63,770.14h15.68v-5.81h696.37l48.19,48.19h69.95l58.58,58.58h204.71l86.98-86.98h194.36l116.05-116.05h79.52l40.52,40.52h269.87c1.48,0,2.68-1.2,2.68-2.68s-1.2-2.68-2.68-2.68h-267.65l-40.52-40.52h-83.97l-116.05,116.05h-194.36l-86.98,86.98h-200.27l-58.58-58.58h-69.95l-48.19-48.19h-698.59v-4.5h-15.68v15.68ZM1793.99,759.83h4.95v4.95h-4.95v-4.95Z"/>
              <path class="cls-2" d="M1788.63,725.87v15.68h15.68v-5.03h738.08l48.19,48.19h85.49l58.58,58.58h135.95l86.98-86.98h194.36l116.05-116.05h102.57l40.52,40.52h258.35c1.48,0,2.68-1.2,2.68-2.68s-1.2-2.68-2.68-2.68h-256.13l-40.52-40.52h-107.01l-116.05,116.05h-194.36l-86.98,86.98h-131.5l-58.58-58.58h-85.49l-48.19-48.19h-740.31v-5.28h-15.68ZM1798.94,736.18h-4.95v-4.95h4.95v4.95Z"/>
              <path class="cls-3" d="M2186.57,831.02v15.68h15.68v-5.16h405.39v6.25h15.68v-15.68h-15.68v4.06h-405.39v-5.15h-15.68ZM2613,837.48h4.95v4.95h-4.95v-4.95ZM2196.88,841.33h-4.95v-4.95h4.95v4.95Z"/>
              <path class="cls-3" d="M2186.57,803.05v15.68h15.68v-5.01h266.49v6.1h15.68v-15.68h-15.68v4.21h-266.49v-5.31h-15.68ZM2474.1,809.51h4.95v4.95h-4.95v-4.95ZM2196.88,813.37h-4.95v-4.95h4.95v4.95Z"/>
              <path class="cls-3" d="M2186.57,775.09v15.68h15.68v-4.85h296.44l41.72,41.72h48.48v5.16h15.68v-15.68h-15.68v5.15h-46.26l-41.72-41.72h-298.66v-5.46h-15.68ZM2594.25,822.48h4.95v4.95h-4.95v-4.95ZM2196.88,785.4h-4.95v-4.95h4.95v4.95Z"/>
              <path class="cls-3" d="M2186.57,739.93v15.68h15.68v-5.19h304.19l48.19,48.19h69.95l58.58,58.58h193.19l86.98-86.98h194.36l116.05-116.05h91.04l40.52,40.52h264.11c1.48,0,2.68-1.2,2.68-2.68s-1.2-2.68-2.68-2.68h-261.89l-40.52-40.52h-95.49l-116.05,116.05h-194.36l-86.98,86.98h-188.75l-58.58-58.58h-69.95l-48.19-48.19h-306.41v-5.12h-15.68ZM2196.88,750.25h-4.95v-4.95h4.95v4.95Z"/>
              <path class="cls-3" d="M2186.57,658.09v15.68h15.68v-3.93h334.66l64.41-64.41h70.75l52.12-52.12h164.93l87.89,87.89h138.99l96.9-96.89h189.7l52.22,52.22h214.6c1.48,0,2.68-1.2,2.68-2.68s-1.2-2.68-2.68-2.68h-212.38l-52.22-52.22h-194.14l-96.9,96.89h-134.55l-87.89-87.89h-169.37l-52.12,52.12h-70.75l-64.41,64.41h-332.44v-6.38h-15.68ZM2196.88,668.4h-4.95v-4.95h4.95v4.95Z"/>
              <path class="cls-2" d="M1703.01,960.91h15.68v-6.34h153.11l149.92,149.92h20.31l20.63,20.63h393.55l142.36,142.36h767.19l69.78-69.78h193.2c1.48,0,2.68-1.2,2.68-2.68s-1.2-2.68-2.68-2.68h-195.42l-69.78,69.78h-762.75l-142.36-142.36h-393.55l-20.63-20.63h-20.31l-149.92-149.92h-155.33v-3.98h-15.68v15.68ZM1708.37,950.6h4.95v4.95h-4.95v-4.95Z"/>
              <path class="cls-2" d="M1703.01,896.54h15.68v-6.66h11.7l17.57,17.58h105.37l15.39-15.39h43.68l81.41,81.41h34.43l30.7,30.7v40.37l34.26,34.26h361.15l79.58,79.58h39.84l17.53,17.53v22.63l28.1,28.1h140.7l37.52-37.52h30.18l39.61,39.61h64.05l87.53-87.53h80.16l86.7-86.7h164.41l35.97,35.97h86.27l50.47-49.88h171.97c1.48,0,2.68-1.2,2.68-2.68s-1.2-2.68-2.68-2.68h-174.18l-50.47,49.88h-81.84l-35.97-35.97h-168.85l-86.7,86.7h-80.16l-87.53,87.53h-59.61l-39.61-39.61h-34.63l-37.52,37.52h-136.26l-24.95-24.95v-22.63l-20.68-20.68h-39.84l-79.58-79.58h-361.15l-31.11-31.11v-40.37l-33.84-33.84h-34.43l-81.41-81.41h-48.13l-15.39,15.39h-100.93l-17.57-17.58h-13.92v-3.65h-15.68v15.68ZM1708.37,886.23h4.95v4.95h-4.95v-4.95Z"/>
              <path class="cls-2" d="M1703.01,867.79h15.68v-5.73h23.22l17.57,17.57h82.33l15.39-15.39h79.96l81.41,81.41h40.64l25.05,25.05v22.88l57.39,57.39h338.09l69.53,69.53h37.13l55.56,55.56h106.25l14.75-14.75h101.3l39.61,39.61h16.08l87.53-87.53h80.16l86.7-86.7h229.97v4.99h15.68v-15.68h-15.68v5.32h-232.19l-86.7,86.7h-80.16l-87.53,87.53h-11.63l-39.61-39.61h-105.74l-14.75,14.75h-101.81l-55.56-55.56h-37.13l-69.53-69.53h-338.09l-54.25-54.24v-22.89l-28.19-28.19h-40.64l-81.41-81.41h-84.4l-15.39,15.39h-77.89l-17.57-17.57h-25.44v-4.59h-15.68v15.68ZM3409.67,1021.37h4.95v4.95h-4.95v-4.95ZM1708.37,857.48h4.95v4.95h-4.95v-4.95Z"/>
              <path class="cls-3" d="M1723.01,929.61v15.68h15.68v-5.29h77.93l19.85-19.85h67.85l191.38,191.38h368.39l142.68,142.68h322.91l73.67-73.67h78.27l104.07-104.07h104.74l45.98,45.99h193.29c1.48,0,2.68-1.2,2.68-2.68s-1.2-2.68-2.68-2.68h-191.07l-45.99-45.99h-109.18l-104.07,104.07h-78.27l-73.67,73.67h-318.47l-142.68-142.68h-368.39l-191.38-191.38h-72.29l-19.85,19.85h-75.7v-5.02h-15.68ZM1733.32,939.92h-4.95v-4.95h4.95v4.95Z"/>
              <path class="cls-3" d="M1723.01,958.98v15.68h15.68v-6.18h127.35l196.88,196.89h85.23l34.75,34.75h72.78l36.9-36.9h182.05l144.37,144.37h744.53l69.67,70.67h190.68c1.48,0,2.68-1.2,2.68-2.68s-1.2-2.68-2.68-2.68h-188.44l-69.67-70.67h-744.55l-144.37-144.37h-186.49l-36.9,36.9h-68.34l-34.75-34.75h-85.23l-196.88-196.89h-129.57v-4.13h-15.68ZM1733.32,969.29h-4.95v-4.95h4.95v4.95Z"/>
              <path class="cls-3" d="M1459.43,1080.9h4.86v184.2l23.73,23.73v12.53h15.68v-15.68h-11.24l-22.8-22.8v-181.98h5.45v-15.68h-15.68v15.68ZM1498.33,1295.99h-4.95v-4.95h4.95v4.95ZM1464.79,1070.59h4.95v4.95h-4.95v-4.95Z"/>
              <path class="cls-2" d="M1425.68,1080.9h4.05v192.31l55.58,55.58v28.18l54.01,54.01h22.48l-50.47-50.47v-28.18l-55.58-55.58v-250.54h5.92v-15.68h-15.68v15.68h4.39v252.76l55.58,55.58v28.18l42.88,42.88h-7.31l-50.87-50.86v-28.18l-55.58-55.58v-190.09h6.26v-15.68h-15.68v15.68ZM1451.36,1015.9h4.95v4.95h-4.95v-4.95ZM1431.05,1070.59h4.95v4.95h-4.95v-4.95Z"/>
              <path class="cls-2" d="M1901.34,132.07h110.54v93.66h-78.81l-31.73-31.73v-61.93ZM2003.83,140.12h-94.45v50.56l27.02,27.02h67.43v-77.57Z"/>
              <rect class="cls-2" x="896.05" y="25.47" width="23.75" height="10" transform="translate(1815.86 60.95) rotate(180)"/>
              <rect class="cls-3" x="875.43" y="25.47" width="11.25" height="10" transform="translate(1762.11 60.95) rotate(180)"/>
              <rect class="cls-3" x="896.05" y="-1.4" width="23.75" height="10" transform="translate(1815.86 7.2) rotate(180)"/>
              <rect class="cls-2" x="875.43" y="-1.4" width="11.25" height="10" transform="translate(1762.11 7.2) rotate(180)"/>
              <rect class="cls-3" x="782.31" y="25.47" width="23.75" height="10"/>
              <rect class="cls-3" x="815.43" y="25.47" width="11.25" height="10"/>
              <rect class="cls-2" x="782.31" y="-1.4" width="23.75" height="10"/>
              <rect class="cls-3" x="815.43" y="-1.4" width="11.25" height="10"/>
              <g class="cls-5">
                <path class="cls-2" d="M768.11-73.54h163.04V52.44h-163.04v-125.98ZM923.1-65.5h-146.94V44.39h146.94v-109.89Z"/>
              </g>
              <path class="cls-2" d="M2320.61,558.84v-56.79h-56.79v56.79h56.79ZM2271.86,550.79v-16.33h40.7v16.33h-40.7ZM2312.56,510.09v16.33h-40.7v-16.33h40.7Z"/>
              <rect class="cls-3" x="1598.98" y="1215.71" width="14.06" height="14.06" transform="translate(3212.02 2445.48) rotate(180)"/>
              <rect class="cls-2" x="1598.98" y="1159.46" width="14.06" height="14.06" transform="translate(3212.02 2332.99) rotate(180)"/>
              <rect class="cls-3" x="1598.98" y="1103.22" width="14.06" height="14.06" transform="translate(3212.02 2220.49) rotate(180)"/>
              <rect class="cls-2" x="1598.98" y="1046.97" width="14.06" height="14.06" transform="translate(3212.02 2108) rotate(180)"/>
              <g class="cls-5">
                <path class="cls-2" d="M750.36,763.24h150.54v150.54h-150.54v-150.54ZM892.85,771.28h-134.44v134.45h134.44v-134.45Z"/>
              </g>
              <path class="cls-3" d="M190,1209.33v-6.87h223.64l69.17-69.17v-173.58l66.02-66.02v-26.73l216.43-216.43h115.93v4.47h15.68v-15.67h-15.68v5.84h-118.15l-219.58,219.58v26.73l-66.02,66.02v173.58l-66.03,66.03h-221.41v-4.38h-16.61v16.61h16.61ZM886.55,644.68h4.95v4.95h-4.95v-4.95ZM178.75,1198.08h5.89v5.89h-5.89v-5.89Z"/>
              <path class="cls-2" d="M-779.98,639.78l32.64,32.65h191.3l76.34,76.34h117.6l52.45,52.45h25.65l17.78-17.77h120.51l49.95,49.95h28.99l79.66-79.66h20.03v3.88h15.19v-15.19h-15.19v5.94H10.67l-79.66,79.66h-24.55l-49.95-49.95h-124.95l-17.78,17.77h-21.21l-52.45-52.45h-117.6l-76.34-76.34h-191.3l-29.5-29.5V136.64l-299.03-299.02c-.52-.52-1.21-.79-1.9-.79s-1.37.26-1.9.79c-1.05,1.05-1.05,2.75,0,3.79l297.45,297.45v500.92ZM38.29,747.8h4.46v4.46h-4.46v-4.46Z"/>
              <path class="cls-2" d="M-320.57,733.73h15.68v-15.68h-11.46l-7.07-7.06v-8.12l10.39-10.39h149.12l66,66h30.52l46.22-46.22h93.93v5.52h15.19v-15.19h-15.19v4.3H-23.38l-46.22,46.22h-26.08l-66-66h-153.56l-13.53,13.53v12.56l8.21,8.21v12.31ZM-315.21,723.42h4.95v4.95h-4.95v-4.95ZM78.13,707.96h4.46v4.46h-4.46v-4.46Z"/>
              <path class="cls-3" d="M-1084.8-206.31l391.61,391.61v117.22l-52.3,52.3v172.7l41.36,41.36h24.12l49.33,49.33h91.44l90.02,90.02h87.83l39.63,39.63h25.31l34.16-34.16h100.66l66.7,66.7h38.4l48.07-48.07h60.95c.13,0,.24-.06.37-.07v5.43h15.18v-15.19h-15.18v4.53c-.12-.02-.24-.07-.37-.07H-10.69l-48.07,48.07h-33.96l-66.7-66.7h-105.1l-34.16,34.16h-20.87l-39.63-39.63h-87.83l-90.02-90.02h-91.44l-49.33-49.33h-24.12l-38.22-38.22v-168.26l52.3-52.3v-121.66l-393.18-393.18c-.52-.52-1.21-.79-1.9-.79s-1.37.26-1.9.79c-1.05,1.05-1.05,2.75,0,3.79ZM58.21,727.88h4.46v4.46h-4.46v-4.46Z"/>
              <path class="cls-3" d="M18.35,766.91l-79.66,79.66h-67.84l-37.02-37.02h-81.66l-17.78,17.77h-36.57l-41.82-41.82h-117.6l-99.9-99.9h-213.87l-30.67-30.67V145.28l-263.87-263.87c-.52-.52-1.21-.79-1.9-.79s-1.37.26-1.9.79c-1.05,1.05-1.05,2.75,0,3.79l262.3,262.3v509.66l33.81,33.81h213.87l99.9,99.9h117.6l41.82,41.82h41.01l17.78-17.77h77.21l37.02,37.02H-59.09l79.66-79.66h36.47l60.02-60.02h297.46v4.74h15.18v-15.18h-15.18v5.08H114.85l-60.02,60.02H18.35ZM419.89,707.18h4.46v4.46h-4.46v-4.46Z"/>
              <path class="cls-3" d="M-1075.39-281.6l421.18,421.18v350.18l54.13,54.13h130.26l85.77,85.77H443.58v5.15h15.18v-15.18h-15.18v4.67H-381.83l-85.77-85.77h-130.26l-50.99-50.99V137.36l-422.76-422.75c-.52-.52-1.21-.79-1.9-.79s-1.37.26-1.9.79c-1.05,1.05-1.05,2.74,0,3.79ZM448.95,624.99h4.46v4.46h-4.46v-4.46Z"/>
              <g>
                <path class="cls-2" d="M1802.59,1095.18l54.34,54.34-54.34,54.33-54.34-54.33,54.34-54.34ZM1845.55,1149.51l-42.96-42.96-42.96,42.96,42.96,42.96,42.96-42.96Z"/>
                <g>
                  <path class="cls-2" d="M1831.65,1150.95c-.93-.93-.93-2.43,0-3.36s2.43-.93,3.36,0c.93.93.93,2.43,0,3.36-.93.93-2.43.93-3.36,0Z"/>
                  <path class="cls-2" d="M1823.9,1158.7c-.93-.93-.93-2.43,0-3.36s2.43-.93,3.36,0c.93.93.93,2.43,0,3.36-.93.93-2.43.93-3.36,0Z"/>
                  <path class="cls-2" d="M1816.16,1166.44c-.93-.93-.93-2.43,0-3.36.93-.93,2.43-.93,3.36,0,.93.93.93,2.43,0,3.36-.93.93-2.43.93-3.36,0Z"/>
                  <path class="cls-2" d="M1808.42,1174.18c-.93-.93-.93-2.43,0-3.36s2.43-.93,3.36,0c.93.93.93,2.43,0,3.36-.93.93-2.43.93-3.36,0Z"/>
                  <path class="cls-2" d="M1800.67,1181.93c-.93-.93-.93-2.43,0-3.36s2.43-.93,3.36,0c.93.93.93,2.43,0,3.36-.93.93-2.43.93-3.36,0Z"/>
                  <path class="cls-2" d="M1824.02,1143.33c-.93-.93-.93-2.43,0-3.36s2.43-.93,3.36,0c.93.93.93,2.43,0,3.36-.93.93-2.43.93-3.36,0Z"/>
                  <path class="cls-2" d="M1816.28,1151.07c-.93-.93-.93-2.43,0-3.36s2.43-.93,3.36,0c.93.93.93,2.43,0,3.36-.93.93-2.43.93-3.36,0Z"/>
                  <path class="cls-2" d="M1808.54,1158.82c-.93-.93-.93-2.43,0-3.36.93-.93,2.43-.93,3.36,0,.93.93.93,2.43,0,3.36-.93.93-2.43.93-3.36,0Z"/>
                  <path class="cls-2" d="M1800.79,1166.56c-.93-.93-.93-2.43,0-3.36s2.43-.93,3.36,0c.93.93.93,2.43,0,3.36-.93.93-2.43.93-3.36,0Z"/>
                  <path class="cls-2" d="M1793.05,1174.3c-.93-.93-.93-2.43,0-3.36s2.43-.93,3.36,0,.93,2.43,0,3.36c-.93.93-2.43.93-3.36,0Z"/>
                  <path class="cls-2" d="M1816.4,1135.71c-.93-.93-.93-2.43,0-3.36.93-.93,2.43-.93,3.36,0,.93.93.93,2.43,0,3.36-.93.93-2.43.93-3.36,0Z"/>
                  <path class="cls-2" d="M1808.66,1143.45c-.93-.93-.93-2.43,0-3.36.93-.93,2.43-.93,3.36,0,.93.93.93,2.43,0,3.36-.93.93-2.43.93-3.36,0Z"/>
                  <path class="cls-2" d="M1800.91,1151.19c-.93-.93-.93-2.43,0-3.36.93-.93,2.43-.93,3.36,0,.93.93.93,2.43,0,3.36-.93.93-2.43.93-3.36,0Z"/>
                  <path class="cls-2" d="M1793.17,1158.94c-.93-.93-.93-2.43,0-3.36.93-.93,2.43-.93,3.36,0,.93.93.93,2.43,0,3.36-.93.93-2.43.93-3.36,0Z"/>
                  <path class="cls-2" d="M1785.43,1166.68c-.93-.93-.93-2.43,0-3.36.93-.93,2.43-.93,3.36,0,.93.93.93,2.43,0,3.36-.93.93-2.43.93-3.36,0Z"/>
                  <path class="cls-2" d="M1808.78,1128.08c-.93-.93-.93-2.43,0-3.36.93-.93,2.43-.93,3.36,0,.93.93.93,2.43,0,3.36s-2.43.93-3.36,0Z"/>
                  <path class="cls-2" d="M1801.03,1135.83c-.93-.93-.93-2.43,0-3.36.93-.93,2.43-.93,3.36,0s.93,2.43,0,3.36c-.93.93-2.43.93-3.36,0Z"/>
                  <path class="cls-2" d="M1793.29,1143.57c-.93-.93-.93-2.43,0-3.36.93-.93,2.43-.93,3.36,0,.93.93.93,2.43,0,3.36s-2.43.93-3.36,0Z"/>
                  <path class="cls-2" d="M1785.55,1151.31c-.93-.93-.93-2.43,0-3.36.93-.93,2.43-.93,3.36,0s.93,2.43,0,3.36c-.93.93-2.43.93-3.36,0Z"/>
                  <path class="cls-2" d="M1777.8,1159.06c-.93-.93-.93-2.43,0-3.36.93-.93,2.43-.93,3.36,0,.93.93.93,2.43,0,3.36s-2.43.93-3.36,0Z"/>
                  <path class="cls-2" d="M1801.15,1120.46c-.93-.93-.93-2.43,0-3.36.93-.93,2.43-.93,3.36,0,.93.93.93,2.43,0,3.36s-2.43.93-3.36,0Z"/>
                  <path class="cls-2" d="M1793.41,1128.2c-.93-.93-.93-2.43,0-3.36.93-.93,2.43-.93,3.36,0,.93.93.93,2.43,0,3.36s-2.43.93-3.36,0Z"/>
                  <path class="cls-2" d="M1785.67,1135.95c-.93-.93-.93-2.43,0-3.36.93-.93,2.43-.93,3.36,0,.93.93.93,2.43,0,3.36s-2.43.93-3.36,0Z"/>
                  <path class="cls-2" d="M1777.92,1143.69c-.93-.93-.93-2.43,0-3.36.93-.93,2.43-.93,3.36,0,.93.93.93,2.43,0,3.36s-2.43.93-3.36,0Z"/>
                  <path class="cls-2" d="M1770.18,1151.43c-.93-.93-.93-2.43,0-3.36.93-.93,2.43-.93,3.36,0,.93.93.93,2.43,0,3.36s-2.43.93-3.36,0Z"/>
                </g>
                <g>
                  <path class="cls-2" d="M1899.77,1219.07c-.93-.93-.93-2.43,0-3.36.93-.93,2.43-.93,3.36,0,.93.93.93,2.43,0,3.36-.93.93-2.43.93-3.36,0Z"/>
                  <path class="cls-2" d="M1892.02,1226.82c-.93-.93-.93-2.43,0-3.36s2.43-.93,3.36,0c.93.93.93,2.43,0,3.36-.93.93-2.43.93-3.36,0Z"/>
                  <path class="cls-2" d="M1884.28,1234.56c-.93-.93-.93-2.43,0-3.36s2.43-.93,3.36,0c.93.93.93,2.43,0,3.36-.93.93-2.43.93-3.36,0Z"/>
                  <path class="cls-2" d="M1876.54,1242.3c-.93-.93-.93-2.43,0-3.36.93-.93,2.43-.93,3.36,0,.93.93.93,2.43,0,3.36-.93.93-2.43.93-3.36,0Z"/>
                  <path class="cls-2" d="M1868.79,1250.05c-.93-.93-.93-2.43,0-3.36s2.43-.93,3.36,0c.93.93.93,2.43,0,3.36-.93.93-2.43.93-3.36,0Z"/>
                  <path class="cls-2" d="M1892.14,1211.45c-.93-.93-.93-2.43,0-3.36s2.43-.93,3.36,0,.93,2.43,0,3.36c-.93.93-2.43.93-3.36,0Z"/>
                  <path class="cls-2" d="M1884.4,1219.19c-.93-.93-.93-2.43,0-3.36s2.43-.93,3.36,0c.93.93.93,2.43,0,3.36-.93.93-2.43.93-3.36,0Z"/>
                  <path class="cls-2" d="M1876.66,1226.94c-.93-.93-.93-2.43,0-3.36.93-.93,2.43-.93,3.36,0,.93.93.93,2.43,0,3.36-.93.93-2.43.93-3.36,0Z"/>
                  <path class="cls-2" d="M1868.91,1234.68c-.93-.93-.93-2.43,0-3.36s2.43-.93,3.36,0c.93.93.93,2.43,0,3.36-.93.93-2.43.93-3.36,0Z"/>
                  <path class="cls-2" d="M1861.17,1242.42c-.93-.93-.93-2.43,0-3.36s2.43-.93,3.36,0c.93.93.93,2.43,0,3.36-.93.93-2.43.93-3.36,0Z"/>
                  <path class="cls-2" d="M1884.52,1203.83c-.93-.93-.93-2.43,0-3.36.93-.93,2.43-.93,3.36,0,.93.93.93,2.43,0,3.36-.93.93-2.43.93-3.36,0Z"/>
                  <path class="cls-2" d="M1876.78,1211.57c-.93-.93-.93-2.43,0-3.36.93-.93,2.43-.93,3.36,0,.93.93.93,2.43,0,3.36-.93.93-2.43.93-3.36,0Z"/>
                  <path class="cls-2" d="M1869.03,1219.31c-.93-.93-.93-2.43,0-3.36.93-.93,2.43-.93,3.36,0,.93.93.93,2.43,0,3.36-.93.93-2.43.93-3.36,0Z"/>
                  <path class="cls-2" d="M1861.29,1227.06c-.93-.93-.93-2.43,0-3.36.93-.93,2.43-.93,3.36,0,.93.93.93,2.43,0,3.36-.93.93-2.43.93-3.36,0Z"/>
                  <path class="cls-2" d="M1853.55,1234.8c-.93-.93-.93-2.43,0-3.36s2.43-.93,3.36,0,.93,2.43,0,3.36c-.93.93-2.43.93-3.36,0Z"/>
                  <path class="cls-2" d="M1876.9,1196.2c-.93-.93-.93-2.43,0-3.36.93-.93,2.43-.93,3.36,0,.93.93.93,2.43,0,3.36-.93.93-2.43.93-3.36,0Z"/>
                  <path class="cls-2" d="M1869.15,1203.95c-.93-.93-.93-2.43,0-3.36.93-.93,2.43-.93,3.36,0,.93.93.93,2.43,0,3.36-.93.93-2.43.93-3.36,0Z"/>
                  <path class="cls-2" d="M1861.41,1211.69c-.93-.93-.93-2.43,0-3.36.93-.93,2.43-.93,3.36,0,.93.93.93,2.43,0,3.36-.93.93-2.43.93-3.36,0Z"/>
                  <path class="cls-2" d="M1853.67,1219.43c-.93-.93-.93-2.43,0-3.36.93-.93,2.43-.93,3.36,0,.93.93.93,2.43,0,3.36-.93.93-2.43.93-3.36,0Z"/>
                  <path class="cls-2" d="M1845.92,1227.18c-.93-.93-.93-2.43,0-3.36.93-.93,2.43-.93,3.36,0,.93.93.93,2.43,0,3.36s-2.43.93-3.36,0Z"/>
                  <path class="cls-2" d="M1869.28,1188.58c-.93-.93-.93-2.43,0-3.36.93-.93,2.43-.93,3.36,0,.93.93.93,2.43,0,3.36s-2.43.93-3.36,0Z"/>
                  <path class="cls-2" d="M1861.53,1196.32c-.93-.93-.93-2.43,0-3.36.93-.93,2.43-.93,3.36,0,.93.93.93,2.43,0,3.36-.93.93-2.43.93-3.36,0Z"/>
                  <path class="cls-2" d="M1853.79,1204.07c-.93-.93-.93-2.43,0-3.36.93-.93,2.43-.93,3.36,0,.93.93.93,2.43,0,3.36s-2.43.93-3.36,0Z"/>
                  <path class="cls-2" d="M1846.05,1211.81c-.93-.93-.93-2.43,0-3.36.93-.93,2.43-.93,3.36,0,.93.93.93,2.43,0,3.36s-2.43.93-3.36,0Z"/>
                  <path class="cls-2" d="M1838.3,1219.55c-.93-.93-.93-2.43,0-3.36.93-.93,2.43-.93,3.36,0,.93.93.93,2.43,0,3.36-.93.93-2.43.93-3.36,0Z"/>
                </g>
                <path class="cls-2" d="M1938.83,1231.42l54.34,54.34-54.34,54.34-54.33-54.34,54.33-54.34ZM1981.79,1285.75l-42.96-42.96-42.96,42.96,42.96,42.96,42.96-42.96Z"/>
                <g>
                  <path class="cls-2" d="M1967.89,1287.19c-.93-.93-.93-2.43,0-3.36s2.43-.93,3.36,0c.93.93.93,2.43,0,3.36-.93.93-2.43.93-3.36,0Z"/>
                  <path class="cls-2" d="M1960.14,1294.94c-.93-.93-.93-2.43,0-3.36.93-.93,2.43-.93,3.36,0,.93.93.93,2.43,0,3.36-.93.93-2.43.93-3.36,0Z"/>
                  <path class="cls-2" d="M1952.4,1302.68c-.93-.93-.93-2.43,0-3.36.93-.93,2.43-.93,3.36,0,.93.93.93,2.43,0,3.36-.93.93-2.43.93-3.36,0Z"/>
                  <path class="cls-2" d="M1944.66,1310.42c-.93-.93-.93-2.43,0-3.36s2.43-.93,3.36,0c.93.93.93,2.43,0,3.36-.93.93-2.43.93-3.36,0Z"/>
                  <path class="cls-2" d="M1936.91,1318.17c-.93-.93-.93-2.43,0-3.36s2.43-.93,3.36,0c.93.93.93,2.43,0,3.36-.93.93-2.43.93-3.36,0Z"/>
                  <path class="cls-2" d="M1960.26,1279.57c-.93-.93-.93-2.43,0-3.36.93-.93,2.43-.93,3.36,0,.93.93.93,2.43,0,3.36-.93.93-2.43.93-3.36,0Z"/>
                  <path class="cls-2" d="M1952.52,1287.31c-.93-.93-.93-2.43,0-3.36s2.43-.93,3.36,0c.93.93.93,2.43,0,3.36-.93.93-2.43.93-3.36,0Z"/>
                  <path class="cls-2" d="M1944.78,1295.06c-.93-.93-.93-2.43,0-3.36s2.43-.93,3.36,0c.93.93.93,2.43,0,3.36-.93.93-2.43.93-3.36,0Z"/>
                  <path class="cls-2" d="M1937.03,1302.8c-.93-.93-.93-2.43,0-3.36.93-.93,2.43-.93,3.36,0,.93.93.93,2.43,0,3.36-.93.93-2.43.93-3.36,0Z"/>
                  <path class="cls-2" d="M1929.29,1310.54c-.93-.93-.93-2.43,0-3.36s2.43-.93,3.36,0c.93.93.93,2.43,0,3.36-.93.93-2.43.93-3.36,0Z"/>
                  <path class="cls-2" d="M1952.64,1271.95c-.93-.93-.93-2.43,0-3.36.93-.93,2.43-.93,3.36,0,.93.93.93,2.43,0,3.36-.93.93-2.43.93-3.36,0Z"/>
                  <path class="cls-2" d="M1944.9,1279.69c-.93-.93-.93-2.43,0-3.36.93-.93,2.43-.93,3.36,0,.93.93.93,2.43,0,3.36-.93.93-2.43.93-3.36,0Z"/>
                  <path class="cls-2" d="M1937.15,1287.43c-.93-.93-.93-2.43,0-3.36s2.43-.93,3.36,0c.93.93.93,2.43,0,3.36-.93.93-2.43.93-3.36,0Z"/>
                  <path class="cls-2" d="M1929.41,1295.18c-.93-.93-.93-2.43,0-3.36.93-.93,2.43-.93,3.36,0,.93.93.93,2.43,0,3.36-.93.93-2.43.93-3.36,0Z"/>
                  <path class="cls-2" d="M1921.67,1302.92c-.93-.93-.93-2.43,0-3.36.93-.93,2.43-.93,3.36,0,.93.93.93,2.43,0,3.36-.93.93-2.43.93-3.36,0Z"/>
                  <path class="cls-2" d="M1945.02,1264.32c-.93-.93-.93-2.43,0-3.36.93-.93,2.43-.93,3.36,0,.93.93.93,2.43,0,3.36-.93.93-2.43.93-3.36,0Z"/>
                  <path class="cls-2" d="M1937.28,1272.07c-.93-.93-.93-2.43,0-3.36.93-.93,2.43-.93,3.36,0s.93,2.43,0,3.36-2.43.93-3.36,0Z"/>
                  <path class="cls-2" d="M1929.53,1279.81c-.93-.93-.93-2.43,0-3.36.93-.93,2.43-.93,3.36,0,.93.93.93,2.43,0,3.36-.93.93-2.43.93-3.36,0Z"/>
                  <path class="cls-2" d="M1921.79,1287.55c-.93-.93-.93-2.43,0-3.36.93-.93,2.43-.93,3.36,0,.93.93.93,2.43,0,3.36-.93.93-2.43.93-3.36,0Z"/>
                  <path class="cls-2" d="M1914.05,1295.3c-.93-.93-.93-2.43,0-3.36.93-.93,2.43-.93,3.36,0,.93.93.93,2.43,0,3.36s-2.43.93-3.36,0Z"/>
                  <path class="cls-2" d="M1937.4,1256.7c-.93-.93-.93-2.43,0-3.36.93-.93,2.43-.93,3.36,0,.93.93.93,2.43,0,3.36-.93.93-2.43.93-3.36,0Z"/>
                  <path class="cls-2" d="M1929.65,1264.44c-.93-.93-.93-2.43,0-3.36.93-.93,2.43-.93,3.36,0,.93.93.93,2.43,0,3.36-.93.93-2.43.93-3.36,0Z"/>
                  <path class="cls-2" d="M1921.91,1272.19c-.93-.93-.93-2.43,0-3.36.93-.93,2.43-.93,3.36,0,.93.93.93,2.43,0,3.36s-2.43.93-3.36,0Z"/>
                  <path class="cls-2" d="M1914.17,1279.93c-.93-.93-.93-2.43,0-3.36.93-.93,2.43-.93,3.36,0,.93.93.93,2.43,0,3.36s-2.43.93-3.36,0Z"/>
                  <path class="cls-2" d="M1906.42,1287.67c-.93-.93-.93-2.43,0-3.36.93-.93,2.43-.93,3.36,0,.93.93.93,2.43,0,3.36s-2.43.93-3.36,0Z"/>
                </g>
                <path class="cls-2" d="M1870.71,1163.3l54.34,54.34-54.34,54.34-54.34-54.34,54.34-54.34ZM1913.67,1217.63l-42.96-42.96-42.96,42.96,42.96,42.96,42.96-42.96Z"/>
              </g>
              <path class="cls-2" d="M47.96,29.78l54.34,54.34-54.34,54.33L-6.38,84.11,47.96,29.78ZM90.92,84.11l-42.96-42.96L5,84.11l42.96,42.96,42.96-42.96Z"/>
              <g>
                <path class="cls-2" d="M77.01,85.55c-.93-.93-.93-2.43,0-3.36s2.43-.93,3.36,0c.93.93.93,2.43,0,3.36-.93.93-2.43.93-3.36,0Z"/>
                <path class="cls-2" d="M69.27,93.29c-.93-.93-.93-2.43,0-3.36s2.43-.93,3.36,0c.93.93.93,2.43,0,3.36-.93.93-2.43.93-3.36,0Z"/>
                <path class="cls-2" d="M61.52,101.04c-.93-.93-.93-2.43,0-3.36s2.43-.93,3.36,0c.93.93.93,2.43,0,3.36-.93.93-2.43.93-3.36,0Z"/>
                <path class="cls-2" d="M53.78,108.78c-.93-.93-.93-2.43,0-3.36s2.43-.93,3.36,0c.93.93.93,2.43,0,3.36-.93.93-2.43.93-3.36,0Z"/>
                <path class="cls-2" d="M46.04,116.52c-.93-.93-.93-2.43,0-3.36.93-.93,2.43-.93,3.36,0,.93.93.93,2.43,0,3.36-.93.93-2.43.93-3.36,0Z"/>
                <path class="cls-2" d="M69.39,77.93c-.93-.93-.93-2.43,0-3.36s2.43-.93,3.36,0c.93.93.93,2.43,0,3.36-.93.93-2.43.93-3.36,0Z"/>
                <path class="cls-2" d="M61.65,85.67c-.93-.93-.93-2.43,0-3.36s2.43-.93,3.36,0c.93.93.93,2.43,0,3.36-.93.93-2.43.93-3.36,0Z"/>
                <path class="cls-2" d="M53.9,93.41c-.93-.93-.93-2.43,0-3.36.93-.93,2.43-.93,3.36,0,.93.93.93,2.43,0,3.36-.93.93-2.43.93-3.36,0Z"/>
                <path class="cls-2" d="M46.16,101.16c-.93-.93-.93-2.43,0-3.36.93-.93,2.43-.93,3.36,0,.93.93.93,2.43,0,3.36-.93.93-2.43.93-3.36,0Z"/>
                <path class="cls-2" d="M38.41,108.9c-.93-.93-.93-2.43,0-3.36s2.43-.93,3.36,0c.93.93.93,2.43,0,3.36-.93.93-2.43.93-3.36,0Z"/>
                <path class="cls-2" d="M61.77,70.3c-.93-.93-.93-2.43,0-3.36.93-.93,2.43-.93,3.36,0,.93.93.93,2.43,0,3.36-.93.93-2.43.93-3.36,0Z"/>
                <path class="cls-2" d="M54.02,78.05c-.93-.93-.93-2.43,0-3.36.93-.93,2.43-.93,3.36,0,.93.93.93,2.43,0,3.36-.93.93-2.43.93-3.36,0Z"/>
                <path class="cls-2" d="M46.28,85.79c-.93-.93-.93-2.43,0-3.36.93-.93,2.43-.93,3.36,0,.93.93.93,2.43,0,3.36-.93.93-2.43.93-3.36,0Z"/>
                <path class="cls-2" d="M38.54,93.53c-.93-.93-.93-2.43,0-3.36.93-.93,2.43-.93,3.36,0,.93.93.93,2.43,0,3.36-.93.93-2.43.93-3.36,0Z"/>
                <path class="cls-2" d="M30.79,101.28c-.93-.93-.93-2.43,0-3.36.93-.93,2.43-.93,3.36,0,.93.93.93,2.43,0,3.36-.93.93-2.43.93-3.36,0Z"/>
                <path class="cls-2" d="M54.14,62.68c-.93-.93-.93-2.43,0-3.36.93-.93,2.43-.93,3.36,0,.93.93.93,2.43,0,3.36s-2.43.93-3.36,0Z"/>
                <path class="cls-2" d="M46.4,70.42c-.93-.93-.93-2.43,0-3.36.93-.93,2.43-.93,3.36,0,.93.93.93,2.43,0,3.36s-2.43.93-3.36,0Z"/>
                <path class="cls-2" d="M38.66,78.17c-.93-.93-.93-2.43,0-3.36.93-.93,2.43-.93,3.36,0,.93.93.93,2.43,0,3.36s-2.43.93-3.36,0Z"/>
                <path class="cls-2" d="M30.91,85.91c-.93-.93-.93-2.43,0-3.36.93-.93,2.43-.93,3.36,0,.93.93.93,2.43,0,3.36-.93.93-2.43.93-3.36,0Z"/>
                <path class="cls-2" d="M23.17,93.65c-.93-.93-.93-2.43,0-3.36.93-.93,2.43-.93,3.36,0,.93.93.93,2.43,0,3.36s-2.43.93-3.36,0Z"/>
                <path class="cls-2" d="M46.52,55.06c-.93-.93-.93-2.43,0-3.36.93-.93,2.43-.93,3.36,0,.93.93.93,2.43,0,3.36s-2.43.93-3.36,0Z"/>
                <path class="cls-2" d="M38.78,62.8c-.93-.93-.93-2.43,0-3.36.93-.93,2.43-.93,3.36,0,.93.93.93,2.43,0,3.36s-2.43.93-3.36,0Z"/>
                <path class="cls-2" d="M31.03,70.55c-.93-.93-.93-2.43,0-3.36.93-.93,2.43-.93,3.36,0,.93.93.93,2.43,0,3.36s-2.43.93-3.36,0Z"/>
                <path class="cls-2" d="M23.29,78.29c-.93-.93-.93-2.43,0-3.36.93-.93,2.43-.93,3.36,0,.93.93.93,2.43,0,3.36-.93.93-2.43.93-3.36,0Z"/>
                <path class="cls-2" d="M15.55,86.03c-.93-.93-.93-2.43,0-3.36.93-.93,2.43-.93,3.36,0,.93.93.93,2.43,0,3.36-.93.93-2.43.93-3.36,0Z"/>
              </g>
              <path class="cls-2" d="M184.2,166.02l54.34,54.34-54.34,54.34-54.33-54.34,54.33-54.34ZM227.16,220.35l-42.96-42.96-42.96,42.96,42.96,42.96,42.96-42.96Z"/>
              <g>
                <path class="cls-2" d="M213.25,221.79c-.93-.93-.93-2.43,0-3.36.93-.93,2.43-.93,3.36,0,.93.93.93,2.43,0,3.36-.93.93-2.43.93-3.36,0Z"/>
                <path class="cls-2" d="M205.51,229.54c-.93-.93-.93-2.43,0-3.36s2.43-.93,3.36,0c.93.93.93,2.43,0,3.36-.93.93-2.43.93-3.36,0Z"/>
                <path class="cls-2" d="M197.77,237.28c-.93-.93-.93-2.43,0-3.36.93-.93,2.43-.93,3.36,0,.93.93.93,2.43,0,3.36-.93.93-2.43.93-3.36,0Z"/>
                <path class="cls-2" d="M190.02,245.02c-.93-.93-.93-2.43,0-3.36.93-.93,2.43-.93,3.36,0,.93.93.93,2.43,0,3.36-.93.93-2.43.93-3.36,0Z"/>
                <path class="cls-2" d="M182.28,252.77c-.93-.93-.93-2.43,0-3.36.93-.93,2.43-.93,3.36,0,.93.93.93,2.43,0,3.36-.93.93-2.43.93-3.36,0Z"/>
                <path class="cls-2" d="M205.63,214.17c-.93-.93-.93-2.43,0-3.36s2.43-.93,3.36,0c.93.93.93,2.43,0,3.36-.93.93-2.43.93-3.36,0Z"/>
                <path class="cls-2" d="M197.89,221.91c-.93-.93-.93-2.43,0-3.36s2.43-.93,3.36,0c.93.93.93,2.43,0,3.36-.93.93-2.43.93-3.36,0Z"/>
                <path class="cls-2" d="M190.14,229.66c-.93-.93-.93-2.43,0-3.36s2.43-.93,3.36,0c.93.93.93,2.43,0,3.36-.93.93-2.43.93-3.36,0Z"/>
                <path class="cls-2" d="M182.4,237.4c-.93-.93-.93-2.43,0-3.36s2.43-.93,3.36,0c.93.93.93,2.43,0,3.36-.93.93-2.43.93-3.36,0Z"/>
                <path class="cls-2" d="M174.66,245.14c-.93-.93-.93-2.43,0-3.36.93-.93,2.43-.93,3.36,0,.93.93.93,2.43,0,3.36-.93.93-2.43.93-3.36,0Z"/>
                <path class="cls-2" d="M198.01,206.55c-.93-.93-.93-2.43,0-3.36.93-.93,2.43-.93,3.36,0,.93.93.93,2.43,0,3.36-.93.93-2.43.93-3.36,0Z"/>
                <path class="cls-2" d="M190.26,214.29c-.93-.93-.93-2.43,0-3.36.93-.93,2.43-.93,3.36,0,.93.93.93,2.43,0,3.36-.93.93-2.43.93-3.36,0Z"/>
                <path class="cls-2" d="M182.52,222.03c-.93-.93-.93-2.43,0-3.36.93-.93,2.43-.93,3.36,0,.93.93.93,2.43,0,3.36-.93.93-2.43.93-3.36,0Z"/>
                <path class="cls-2" d="M174.78,229.78c-.93-.93-.93-2.43,0-3.36.93-.93,2.43-.93,3.36,0,.93.93.93,2.43,0,3.36-.93.93-2.43.93-3.36,0Z"/>
                <path class="cls-2" d="M167.03,237.52c-.93-.93-.93-2.43,0-3.36.93-.93,2.43-.93,3.36,0,.93.93.93,2.43,0,3.36-.93.93-2.43.93-3.36,0Z"/>
                <path class="cls-2" d="M190.38,198.92c-.93-.93-.93-2.43,0-3.36.93-.93,2.43-.93,3.36,0,.93.93.93,2.43,0,3.36-.93.93-2.43.93-3.36,0Z"/>
                <path class="cls-2" d="M182.64,206.67c-.93-.93-.93-2.43,0-3.36.93-.93,2.43-.93,3.36,0,.93.93.93,2.43,0,3.36-.93.93-2.43.93-3.36,0Z"/>
                <path class="cls-2" d="M174.9,214.41c-.93-.93-.93-2.43,0-3.36.93-.93,2.43-.93,3.36,0,.93.93.93,2.43,0,3.36s-2.43.93-3.36,0Z"/>
                <path class="cls-2" d="M167.15,222.15c-.93-.93-.93-2.43,0-3.36.93-.93,2.43-.93,3.36,0,.93.93.93,2.43,0,3.36-.93.93-2.43.93-3.36,0Z"/>
                <path class="cls-2" d="M159.41,229.9c-.93-.93-.93-2.43,0-3.36.93-.93,2.43-.93,3.36,0,.93.93.93,2.43,0,3.36s-2.43.93-3.36,0Z"/>
                <path class="cls-2" d="M182.76,191.3c-.93-.93-.93-2.43,0-3.36.93-.93,2.43-.93,3.36,0,.93.93.93,2.43,0,3.36s-2.43.93-3.36,0Z"/>
                <path class="cls-2" d="M175.02,199.04c-.93-.93-.93-2.43,0-3.36.93-.93,2.43-.93,3.36,0,.93.93.93,2.43,0,3.36s-2.43.93-3.36,0Z"/>
                <path class="cls-2" d="M167.27,206.79c-.93-.93-.93-2.43,0-3.36.93-.93,2.43-.93,3.36,0,.93.93.93,2.43,0,3.36s-2.43.93-3.36,0Z"/>
                <path class="cls-2" d="M159.53,214.53c-.93-.93-.93-2.43,0-3.36.93-.93,2.43-.93,3.36,0,.93.93.93,2.43,0,3.36s-2.43.93-3.36,0Z"/>
                <path class="cls-2" d="M151.79,222.27c-.93-.93-.93-2.43,0-3.36.93-.93,2.43-.93,3.36,0,.93.93.93,2.43,0,3.36s-2.43.93-3.36,0Z"/>
              </g>
              <rect class="cls-3" x="2410.33" y="519.19" width="18.75" height="18.75" transform="translate(4839.41 1057.13) rotate(180)"/>
              <rect class="cls-2" x="2410.33" y="558.56" width="18.75" height="18.75" transform="translate(4839.41 1135.88) rotate(180)"/>
              <rect class="cls-3" x="2410.33" y="597.94" width="18.75" height="18.75" transform="translate(4839.41 1214.62) rotate(180)"/>
              <rect class="cls-2" x="21.62" y="580.99" width="17.4" height="17.4" transform="translate(620.01 559.37) rotate(90)"/>
              <rect class="cls-3" x="83.49" y="580.99" width="17.4" height="17.4" transform="translate(681.88 497.5) rotate(90)"/>
              <rect class="cls-3" x="145.36" y="580.99" width="17.4" height="17.4" transform="translate(743.75 435.63) rotate(90)"/>
              <rect class="cls-2" x="207.23" y="580.99" width="17.4" height="17.4" transform="translate(805.62 373.76) rotate(90)"/>
              <rect class="cls-3" x="269.1" y="580.99" width="17.4" height="17.4" transform="translate(867.49 311.89) rotate(90)"/>
              <rect class="cls-2" x="330.97" y="580.99" width="17.4" height="17.4" transform="translate(929.36 250.02) rotate(90)"/>
              <path class="cls-3" d="M-735.73,1778.77h298.49l147.35-147.35v-125.79l166.92-166.92H104.47v5.34h26.92v-15.53h-26.92v4.82H-125.19l-170.07,170.07v125.79l-144.21,144.2h-296.27c-1.48,0-2.68,1.2-2.68,2.68s1.2,2.68,2.68,2.68Z"/>
              <path class="cls-2" d="M104.47,1356.2H-110.26l-104.24,104.24v125.79l-35.83,35.83h-11.86v16.09h16.09v-12.74l36.96-36.96v-125.79l101.1-101.1H104.47v5.26h26.92v-15.53h-26.92v4.91ZM-251.46,1632.79h-5.36v-5.36h5.36v5.36Z"/>
              <path class="cls-3" d="M104.47,1380.28H.78l-164.55,164.54v45.69l-31.55,31.55h-11.25v16.09h16.09v-13.35l32.07-32.07v-45.69L3,1385.64h101.47v3.96h26.92v-15.53h-26.92v6.2ZM-195.84,1632.79h-5.36v-5.36h5.36v5.36Z"/>
              <path class="cls-2" d="M104.47,1400.89H15.87l-155.31,155.31v65.85h-5.25v16.09h16.09v-16.09h-5.47v-63.63l152.17-152.17h86.37v6.12h26.92v-15.53h-26.92v4.05ZM-133.97,1627.43v5.36h-5.36v-5.36h5.36Z"/>
              <path class="cls-2" d="M926.65,1179.68h59.43v59.43h-59.43v-59.43ZM975.36,1190.41h-37.98v37.97h37.98v-37.97Z"/>
              <g class="cls-5">
                <path class="cls-2" d="M926.65,1290.99h59.43v59.43h-59.43v-59.43ZM975.36,1301.72h-37.98v37.97h37.98v-37.97Z"/>
              </g>
              <path class="cls-2" d="M1892.22,343.11h23.86v-23.87h-23.86v23.87ZM1894.78,321.8h18.73v18.74h-18.73v-18.74Z"/>
              <path class="cls-2" d="M1892.22,292.85h23.86v-23.87h-23.86v23.87ZM1894.78,271.55h18.73v18.74h-18.73v-18.74Z"/>
              <path class="cls-3" d="M2358.34,1338.54h24.9v-24.9h-24.9v24.9ZM2360.15,1315.44h21.28v21.28h-21.28v-21.28Z"/>
              <path class="cls-3" d="M2335.41,1278.5h54.9c.72,0,1.31-.59,1.31-1.31s-.59-1.31-1.31-1.31h-54.9c-.72,0-1.31.59-1.31,1.31s.59,1.31,1.31,1.31Z"/>
              <path class="cls-2" d="M2231.01,1278.3h84.89v5.6c0,.61.49,1.11,1.11,1.11s1.11-.49,1.11-1.11v-13.4c0-.61-.49-1.11-1.11-1.11s-1.11.5-1.11,1.11v5.6h-84.89c-.61,0-1.11.5-1.11,1.11s.49,1.11,1.11,1.11Z"/>
              <path class="cls-3" d="M2427.66,1398.54c3.54,0,6.41-2.87,6.41-6.41s-2.87-6.41-6.41-6.41-6.41,2.87-6.41,6.41,2.87,6.41,6.41,6.41Z"/>
              <path class="cls-2" d="M2384.61,1392.13c0,3.54,2.87,6.41,6.41,6.41s6.41-2.87,6.41-6.41-2.87-6.41-6.41-6.41-6.41,2.87-6.41,6.41Z"/>
              <path class="cls-3" d="M2354.37,1385.72c-3.54,0-6.41,2.87-6.41,6.41s2.87,6.41,6.41,6.41,6.41-2.87,6.41-6.41-2.87-6.41-6.41-6.41Z"/>
              <path class="cls-2" d="M2261.05,1373.78c-7.91,0-14.35,6.44-14.35,14.35s6.44,14.35,14.35,14.35,14.35-6.44,14.35-14.35-6.44-14.35-14.35-14.35ZM2261.05,1393.31c-2.86,0-5.19-2.33-5.19-5.18s2.33-5.19,5.19-5.19,5.19,2.33,5.19,5.19-2.33,5.18-5.19,5.18Z"/>
              <path class="cls-2" d="M2300.15,1373.78c-7.91,0-14.35,6.44-14.35,14.35s6.44,14.35,14.35,14.35,14.35-6.44,14.35-14.35-6.44-14.35-14.35-14.35ZM2300.15,1393.31c-2.86,0-5.18-2.33-5.18-5.18s2.33-5.19,5.18-5.19,5.19,2.33,5.19,5.19-2.33,5.18-5.19,5.18Z"/>
              <path class="cls-3" d="M2300.15,1339.17c-7.91,0-14.35,6.44-14.35,14.35s6.44,14.35,14.35,14.35,14.35-6.44,14.35-14.35-6.44-14.35-14.35-14.35ZM2300.15,1358.7c-2.86,0-5.18-2.33-5.18-5.19s2.33-5.18,5.18-5.18,5.19,2.33,5.19,5.18-2.33,5.19-5.19,5.19Z"/>
              <rect class="cls-2" x="1703.01" y="755.23" width="53.26" height="53.26" transform="translate(3459.27 1563.71) rotate(180)"/>
              <rect class="cls-3" x="1829.85" y="346.93" width="15.88" height="15.88" transform="translate(3675.57 709.74) rotate(180)"/>
              <rect class="cls-3" x="1800.73" y="346.93" width="15.88" height="15.88" transform="translate(3617.34 709.74) rotate(180)"/>
              <rect class="cls-2" x="1771.62" y="346.93" width="15.88" height="15.88" transform="translate(3559.12 709.74) rotate(180)"/>
              <rect class="cls-2" x="1742.5" y="346.93" width="15.88" height="15.88" transform="translate(3500.89 709.74) rotate(180)"/>
              <rect class="cls-2" x="1829.85" y="375.38" width="15.88" height="15.88" transform="translate(3675.57 766.65) rotate(180)"/>
              <rect class="cls-2" x="1800.73" y="375.38" width="15.88" height="15.88" transform="translate(3617.34 766.65) rotate(180)"/>
              <rect class="cls-3" x="1771.62" y="375.38" width="15.88" height="15.88" transform="translate(3559.12 766.65) rotate(180)"/>
              <rect class="cls-2" x="1742.5" y="375.38" width="15.88" height="15.88" transform="translate(3500.89 766.65) rotate(180)"/>
              <rect class="cls-2" x="1829.85" y="403.84" width="15.88" height="15.88" transform="translate(3675.57 823.55) rotate(180)"/>
              <rect class="cls-3" x="1800.73" y="403.84" width="15.88" height="15.88" transform="translate(3617.34 823.55) rotate(180)"/>
              <rect class="cls-2" x="1771.62" y="403.84" width="15.88" height="15.88" transform="translate(3559.12 823.55) rotate(180)"/>
              <rect class="cls-3" x="1742.5" y="403.84" width="15.88" height="15.88" transform="translate(3500.89 823.55) rotate(180)"/>
              <rect class="cls-2" x="1829.85" y="432.29" width="15.88" height="15.88" transform="translate(3675.57 880.46) rotate(180)"/>
              <rect class="cls-2" x="1800.73" y="432.29" width="15.88" height="15.88" transform="translate(3617.34 880.46) rotate(180)"/>
              <rect class="cls-3" x="1771.62" y="432.29" width="15.88" height="15.88" transform="translate(3559.12 880.46) rotate(180)"/>
              <rect class="cls-2" x="1742.5" y="432.29" width="15.88" height="15.88" transform="translate(3500.89 880.46) rotate(180)"/>
              <rect class="cls-3" x="1004.74" y="1066.55" width="17.1" height="17.1" transform="translate(-69.29 2080.4) rotate(-89.58)"/>
              <rect class="cls-3" x="1004.51" y="1097.33" width="17.1" height="17.1" transform="translate(-100.28 2110.74) rotate(-89.58)"/>
              <rect class="cls-2" x="978.52" y="1066.36" width="17.1" height="17.1" transform="translate(-95.12 2053.99) rotate(-89.58)"/>
              <path class="cls-3" d="M1051.71,1117.79l.15-20.88-20.88-.15-.15,20.88,20.88.15ZM1034.64,1113.88l.1-13.32,13.32.1-.1,13.32-13.32-.1Z"/>
              <rect class="cls-3" x="1032.34" y="1160.28" width="17.1" height="17.1" transform="translate(-135.61 2201.04) rotate(-89.58)"/>
              <path class="cls-2" d="M1051.94,1087.01l.15-20.88-20.88-.15-.15,20.88,20.88.15ZM1034.87,1083.1l.1-13.32,13.32.1-.1,13.32-13.32-.1Z"/>
              <rect class="cls-2" x="1032.57" y="1129.5" width="17.1" height="17.1" transform="translate(-104.59 2170.73) rotate(-89.58)"/>
              <path class="cls-2" d="M929.24,1090.96h31.98v-31.98h-31.98v31.98ZM934.2,1085.99v-18.54l18.54,18.54h-18.54ZM956.25,1063.95v18.54l-18.54-18.54h18.54Z"/>
              <path class="cls-2" d="M219.51,836.03h-43.6v43.6h43.6v-43.6ZM194.08,857.83l-10.47,10.47v-20.93l10.47,10.47ZM187.25,843.73h20.93l-10.47,10.47-10.47-10.47ZM197.71,861.46l10.47,10.47h-20.93l10.47-10.47ZM201.34,857.83l10.47-10.47v20.93l-10.47-10.47Z"/>
              <path class="cls-3" d="M219.51,938.85v-43.6h-43.6v43.6h43.6ZM183.62,902.96h28.19v28.19h-28.19v-28.19Z"/>
              <path class="cls-3" d="M278.73,879.62v-43.6h-43.6v43.6h43.6ZM242.84,843.73h28.19v28.19h-28.19v-28.19Z"/>
              <path class="cls-2" d="M116.08,206.57l54.33-54.34-54.33-54.34-54.34,54.34,54.34,54.34ZM119.9,156.73h34.64l-34.64,34.64v-34.64ZM119.9,149.03v-35.93l35.93,35.93h-35.93ZM112.2,149.03h-35.87l35.87-35.87v35.87ZM112.2,156.73v34.58l-34.58-34.58h34.58Z"/>
              <path class="cls-2" d="M740.55,1289.4c22.32,0,40.48,18.16,40.48,40.48s-18.16,40.48-40.48,40.48-40.48-18.16-40.48-40.48,18.16-40.48,40.48-40.48ZM740.55,1360.1c16.66,0,30.21-13.55,30.21-30.21s-13.55-30.21-30.21-30.21-30.21,13.55-30.21,30.21,13.55,30.21,30.21,30.21Z"/>
              <path class="cls-2" d="M740.55,1311.42c10.18,0,18.47,8.28,18.47,18.46s-8.28,18.46-18.47,18.46-18.46-8.28-18.46-18.46,8.28-18.46,18.46-18.46ZM740.55,1338.08c4.52,0,8.2-3.68,8.2-8.19s-3.68-8.2-8.2-8.2-8.19,3.68-8.19,8.2,3.68,8.19,8.19,8.19Z"/>
              <path class="cls-2" d="M-86.59,1152.39v-5.09H43.11l41.25,41.25h323.51l61.02-61.02v-181.44h5.77v-15.68h-15.68v15.68h4.54v179.22l-57.88,57.88H86.58l-41.25-41.25H-86.59v-4.74h-15.19v15.19h15.19ZM464.35,935.78h4.95v4.95h-4.95v-4.95ZM-96.66,1142.33h4.94v4.94h-4.94v-4.94Z"/>
            </g>
          </g>

          <!-- =========================
               ACTIVE TRACES
               ========================= -->
          <g id="traces-active">
            <!-- Line 1 -->
            <path id="trace-red" class="cls-2" d="M1225.73,1674.76v-648.41c0-.1-.05-.19-.06-.29h5.7v-15.68h-15.68v15.68h4.73c-.01.1-.06.19-.06.29v648.41c0,1,.57,1.84,1.39,2.3h-6.53v15.68h15.68v-15.68h-6.56c.81-.46,1.39-1.3,1.39-2.3ZM1221.06,1015.75h4.95v4.95h-4.95v-4.95ZM1225.54,1687.37h-4.95v-4.95h4.95v4.95Z"/>

            <!-- Line 2 -->
            <path id="trace-yellow" class="cls-2" d="M607.54-15.96v59.14l182.18,182.18h337l92.44,92.44v119.03h-5.96v15.68h15.68v-15.68h-4.35v-121.25l-95.59-95.59h-337l-179.03-179.03V-18.18L141.84-489.24c-.52-.52-1.21-.79-1.9-.79s-1.37.26-1.9.79c-1.05,1.05-1.05,2.75,0,3.79L607.54-15.96ZM1223.51,447.14h-4.95v-4.95h4.95v4.95Z"/>

            <!-- Line 3 -->
            <path id="trace-green" class="cls-2" d="M1703.01,552.76v15.68h15.68v-6.48h197.75l194.87-194.87v-56.3l65.82-65.82V59.65l89.57-89.57h107.44l30.53-30.53h203.44l15.52,15.52h554.78l32.06,32.06h100.88v5.72h15.68v-15.68h-15.68v4.59h-98.66l-32.06-32.06h-554.78l-15.52-15.52h-207.88l-30.53,30.53h-107.44l-92.72,92.72v185.31l-65.82,65.82v56.3l-191.72,191.73h-195.52v-3.83h-15.68ZM3316.7-17.47h4.95v4.95h-4.95v-4.95ZM1713.32,563.07h-4.95v-4.95h4.95v4.95Z"/>

            <!-- Line 4 -->
            <path id="trace-blue" class="cls-2" d="M925.93,598.38h-15.68v5.06h-201.6l-177.63,177.63H145.57L8.91,917.72h-688l-58.04-58.04h-183.21c-1.48,0-2.68,1.2-2.68,2.68s1.2,2.68,2.68,2.68h180.99l58.04,58.04H11.13l136.66-136.66h385.45l177.63-177.63h199.38v5.26h15.68v-15.68ZM920.56,608.69h-4.95v-4.95h4.95v4.95Z"/>

            <!-- Line 5 -->
            <path id="trace-white" class="cls-2" d="M1723.01,929.61v15.68h15.68v-5.29h77.93l19.85-19.85h67.85l191.38,191.38h368.39l142.68,142.68h322.91l73.67-73.67h78.27l104.07-104.07h104.74l45.98,45.99h193.29c1.48,0,2.68-1.2,2.68-2.68s-1.2-2.68-2.68-2.68h-191.07l-45.99-45.99h-109.18l-104.07,104.07h-78.27l-73.67,73.67h-318.47l-142.68-142.68h-368.39l-191.38-191.38h-72.29l-19.85,19.85h-75.7v-5.02h-15.68ZM1733.32,939.92h-4.95v-4.95h4.95v4.95Z"/>
          </g>

          <!-- =========================
               SIGNALS
               ========================= -->
          <g id="traces-signal">
            <path class="signal-path signal1-red runner d1" d="M1225.73,1674.76v-648.41c0-.1-.05-.19-.06-.29h5.7v-15.68h-15.68v15.68h4.73c-.01.1-.06.19-.06.29v648.41c0,1,.57,1.84,1.39,2.3h-6.53v15.68h15.68v-15.68h-6.56c.81-.46,1.39-1.3,1.39-2.3ZM1221.06,1015.75h4.95v4.95h-4.95v-4.95ZM1225.54,1687.37h-4.95v-4.95h4.95v4.95Z"/>

            <path class="signal-path signal2-red runner d2" d="M607.54-15.96v59.14l182.18,182.18h337l92.44,92.44v119.03h-5.96v15.68h15.68v-15.68h-4.35v-121.25l-95.59-95.59h-337l-179.03-179.03V-18.18L141.84-489.24c-.52-.52-1.21-.79-1.9-.79s-1.37.26-1.9.79c-1.05,1.05-1.05,2.75,0,3.79L607.54-15.96ZM1223.51,447.14h-4.95v-4.95h4.95v4.95Z"/>

            <path class="signal-path signal-green runner d3" d="M1703.01,552.76v15.68h15.68v-6.48h197.75l194.87-194.87v-56.3l65.82-65.82V59.65l89.57-89.57h107.44l30.53-30.53h203.44l15.52,15.52h554.78l32.06,32.06h100.88v5.72h15.68v-15.68h-15.68v4.59h-98.66l-32.06-32.06h-554.78l-15.52-15.52h-207.88l-30.53,30.53h-107.44l-92.72,92.72v185.31l-65.82,65.82v56.3l-191.72,191.73h-195.52v-3.83h-15.68ZM3316.7-17.47h4.95v4.95h-4.95v-4.95ZM1713.32,563.07h-4.95v-4.95h4.95v4.95Z"/>

            <path class="signal-path signal1-blue runner d4" d="M925.93,598.38h-15.68v5.06h-201.6l-177.63,177.63H145.57L8.91,917.72h-688l-58.04-58.04h-183.21c-1.48,0-2.68,1.2-2.68,2.68s1.2,2.68,2.68,2.68h180.99l58.04,58.04H11.13l136.66-136.66h385.45l177.63-177.63h199.38v5.26h15.68v-15.68ZM920.56,608.69h-4.95v-4.95h4.95v4.95Z"/>

            <path class="signal-path signal2-blue runner d5" d="M1723.01,929.61v15.68h15.68v-5.29h77.93l19.85-19.85h67.85l191.38,191.38h368.39l142.68,142.68h322.91l73.67-73.67h78.27l104.07-104.07h104.74l45.98,45.99h193.29c1.48,0,2.68-1.2,2.68-2.68s-1.2-2.68-2.68-2.68h-191.07l-45.99-45.99h-109.18l-104.07,104.07h-78.27l-73.67,73.67h-318.47l-142.68-142.68h-368.39l-191.38-191.38h-72.29l-19.85,19.85h-75.7v-5.02h-15.68ZM1733.32,939.92h-4.95v-4.95h4.95v4.95Z"/>
          </g>

        </g>
      </g>
    </svg>
