<?xml version="1.0" encoding="UTF-8"?>
<svg id="Calque_2" data-name="Calque 2" xmlns="http://www.w3.org/2000/svg" viewBox="0 0 30 30">
  <defs>
    <style>
      .cls-1 {
        fill: none;
      }

      .cls-2 {
        fill: #62c690;
      }
    </style>
  </defs>
  <g id="Calque_1-2" data-name="Calque 1">
    <g>
      <rect class="cls-1" width="30" height="30"/>
      <g>
        <path class="cls-2" d="M25.99,19.08l-2.62-4.19.12-.32c.4-.56.77-1.16,1.13-1.75l.37-.57,1.09-1.73h-2.1c-.28.37-.45.81-.68,1.2-.36.58-.73,1.16-1.05,1.78-.05-.02-.11-.06-.15-.13l-1.65-2.86-2.27.02,1.67,2.62,1.05,1.69-.37.61c-.16.27-.32.58-.51.83-.34.46-.61.98-.91,1.47-.34.55-.71,1.05-1.07,1.7h2.08c.15-.11.16-.33.24-.45.34-.49.63-1.03.91-1.56.14-.26.34-.5.45-.78.06-.14.2-.29.32-.49l1.94,3.29h2.23c-.08-.21-.13-.29-.23-.37Z"/>
        <path class="cls-2" d="M10.67,15.26l-1.52-4.74h-2.41s-.26.79-.26.79c-.24.53-.34,1.12-.55,1.7-.26.72-.48,1.45-.74,2.22l-.66,1.95c-.02.06-.03.16-.04.25-.31.63-.47,1.32-.72,2.03h1.99s.2-.74.2-.74l.44-1.37h.76s2.21,0,2.21,0l.64,2.12h2.03c-.08-.39-.22-.65-.33-.97l-1.05-3.22ZM6.88,15.66l.39-1.51c.15-.58.41-1.15.53-1.74l.09-.1c.05.11.12.25.15.33l.82,2.87c.02.07.03.11.02.12l-.05.04h-1.95Z"/>
        <path class="cls-2" d="M16.03,16.92v-2.21s0-2.44,0-2.44c0-.05.03-.15.04-.2h1.12s0-1.56,0-1.56h-1.71c-.38,0-.75.01-1.1.05-.05-.02-.16-.05-.22-.05h-1.23s0,1.55,0,1.55h1.15s.02.89.02.89v2.16s0,1.79,0,1.79l-.02.97-.61.02h-.54s0,1.55,0,1.55l2.1.02h2.04s.12-.06.12-.09v-1.47s-1.14-.03-1.14-.03l-.02-.98Z"/>
      </g>
    </g>
  </g>
</svg>