<?xml version="1.0" encoding="UTF-8"?>
<svg id="Calque_2" data-name="Calque 2" xmlns="http://www.w3.org/2000/svg" viewBox="4.36 9.14 21.31 11.72">
  <defs>
    <style>
      .cls-1 {
        fill: none;
      }

      .cls-2 {
        fill: #999;
      }

      .cls-3 {
        fill: #296fb4;
      }
    </style>
  </defs>
  <g id="Calque_1-2" data-name="Calque 1">
    <g>
      <rect class="cls-1" width="30" height="30"/>
      <g>
        <path class="cls-3" d="M13.5,13.33h-.87l-1.22,3.34h.87l1.22-3.34ZM10.2,20.46c-.05,0-.11,0-.16,0l1.12-3.07h1.54c.27,0,.57-.21.66-.46l1.21-3.33c.2-.54-.11-.99-.69-.99h-2.13l-1.79,4.91h0l-1.01,2.79c-2.4-.57-4.19-2.73-4.19-5.31s1.69-4.62,3.99-5.26l-1.05,2.87-1.74,4.78h1.16l1.48-4.06h.87l-1.48,4.06h1.16s1.38-3.79,1.38-3.79c.2-.54-.11-.99-.69-.99h-.97l1.12-3.07c.08,0,.16,0,.25,0,3.02,0,5.46,2.45,5.46,5.46s-2.45,5.46-5.46,5.46"/>
        <path class="cls-2" d="M21.14,15.55c0,.29-.02.55-.06.78-.04.23-.12.42-.24.59-.12.16-.29.28-.5.37-.21.08-.49.13-.83.13-.29,0-.54-.03-.75-.09-.21-.06-.39-.15-.53-.29-.14-.14-.24-.33-.31-.57s-.1-.54-.1-.91v-2.96h.94c.17,0,.25.08.25.24v2.91c0,.12,0,.22.02.31.01.09.04.16.07.22.03.06.08.1.14.13.06.03.14.04.24.04.1,0,.19-.01.25-.04.06-.03.11-.07.14-.13.03-.06.05-.13.06-.23,0-.09.01-.2.01-.33v-3.13h.94c.17,0,.25.08.25.24v2.72Z"/>
        <path class="cls-2" d="M21.89,17.36c-.07,0-.13-.02-.16-.06-.04-.04-.05-.1-.05-.17,0-.02,0-.05,0-.07,0-.03.01-.05.02-.08.12-.4.26-.77.43-1.1.16-.33.34-.65.53-.96-.2-.34-.39-.7-.57-1.09-.17-.39-.32-.78-.43-1.19h1.08c.08,0,.14.02.17.06.04.04.07.1.09.17.06.26.13.51.21.75.08.24.15.46.24.67.09-.22.18-.46.27-.73.09-.27.17-.58.24-.92h.95c.06,0,.11.02.15.06.04.04.06.1.06.17,0,.04,0,.07-.01.11,0,.03-.02.07-.03.1-.08.26-.2.55-.35.87-.15.32-.33.66-.53,1,.22.34.42.71.61,1.13.19.42.34.85.46,1.29h-1.08c-.09,0-.15-.02-.19-.07-.04-.05-.07-.13-.1-.23-.05-.21-.12-.44-.2-.68-.08-.25-.17-.5-.28-.76-.06.14-.12.3-.17.46-.06.16-.11.32-.16.48-.05.16-.09.3-.13.45s-.07.27-.09.38h-.96Z"/>
      </g>
    </g>
  </g>
</svg>