<?xml version="1.0" encoding="UTF-8"?>
<svg id="Calque_2" data-name="Calque 2" xmlns="http://www.w3.org/2000/svg" viewBox="3.53 10.85 22.94 8.31">
  <defs>
    <style>
      .cls-1 {
        fill: #fff;
      }

      .cls-2 {
        fill: none;
      }
    </style>
  </defs>
  <g id="Calque_1-2" data-name="Calque 1">
    <g>
      <rect class="cls-2" width="30" height="30"/>
      <g>
        <path class="cls-1" d="M3.93,18.76v-1.21h.89v-4.57h-.89v-1.21h3.3v1.21h-.89v4.57h.89v1.21h-3.3Z"/>
        <path class="cls-1" d="M8.5,11.75h3.37c.58,0,1.03.16,1.34.49.32.33.49.76.49,1.3,0,.27-.04.49-.11.68-.07.19-.16.34-.28.46-.11.12-.25.21-.41.27-.15.05-.32.08-.5.09v.06c.17,0,.34.03.52.09.19.06.35.16.51.29.15.13.28.29.38.5.11.21.16.46.16.76,0,.27-.05.53-.14.78-.09.24-.21.45-.37.63-.16.18-.35.32-.57.43-.22.1-.46.15-.72.15h-3.68v-6.99ZM10.01,17.46h1.74c.2,0,.35-.05.47-.16.12-.11.18-.27.18-.47v-.34c0-.2-.06-.35-.18-.46-.11-.11-.27-.17-.47-.17h-1.74v1.6ZM10.01,14.62h1.5c.2,0,.35-.06.47-.17s.17-.27.17-.47v-.3c0-.2-.06-.36-.17-.47-.11-.11-.27-.17-.47-.17h-1.5v1.58Z"/>
        <path class="cls-1" d="M20.31,14.15h-.03l-.51,1.02-1.35,2.48-1.32-2.46-.53-1.1h-.03v4.66h-1.42v-7h1.6l1.7,3.27h.02l1.68-3.27h1.61v7h-1.42v-4.6Z"/>
        <path class="cls-1" d="M25.21,12.93c-.3,0-.52-.07-.66-.2-.13-.14-.2-.32-.2-.53v-.22c0-.21.07-.39.2-.52.14-.14.36-.21.66-.21s.51.07.65.21c.14.13.21.31.21.52v.22c0,.21-.07.39-.21.53-.13.13-.35.2-.65.2ZM24.47,13.49h1.47v5.26h-1.47v-5.26Z"/>
      </g>
    </g>
  </g>
</svg>