<?xml version="1.0" encoding="UTF-8"?>
<svg id="Calque_2" data-name="Calque 2" xmlns="http://www.w3.org/2000/svg" viewBox="6.44 4.77 17.10 20.10">
  <defs>
    <style>
      .cls-1 {
        fill: #ffc107;
      }

      .cls-2 {
        fill: #263238;
      }

      .cls-3 {
        fill: none;
      }

      .cls-4 {
        fill: #634703;
      }

      .cls-5 {
        fill: #212121;
      }

      .cls-6 {
        fill: #eceff1;
      }
    </style>
  </defs>
  <g id="Calque_1-2" data-name="Calque 1">
    <g>
      <rect class="cls-3" width="30" height="30"/>
      <g>
        <polygon class="cls-6" points="12.73 10.88 12.78 12.09 11.94 13.66 10.63 16.22 10.37 18.37 11.31 21.4 13.46 22.6 16.7 22.6 19.74 20.3 21.1 16.69 17.96 12.87 17.07 10.73 12.73 10.88"/>
        <path class="cls-2" d="M20.16,13.86c-.84-1.2-1.52-1.94-1.88-3.45s.1-1.1-.21-2.41c-.16-.68-.42-1.15-.68-1.52-.31-.37-.68-.58-.89-.63-.47-.26-1.57-.68-2.93.05-1.41.73-1.26,2.3-.99,5.49,0,.21-.05.47-.16.68-.21.47-.58.89-.89,1.26-.37.52-.73,1.05-.99,1.62-.63,1.2-1.2,2.72-1.05,3.3.26-.05,3.56,4.97,3.56,5.08.21-.05,1.1-.05,1.88-.05,1.1-.05,1.73-.1,2.62.1,0-.16-.05-.31-.05-.47,0-.31.05-.58.1-.94.05-.26.1-.52.16-.84-.52.47-1.47.99-2.35,1.15-.78.16-2.09-.1-2.72-.89.05,0,.16,0,.21-.05.16-.05.31-.1.37-.21.16-.26.05-.52-.05-.68s-.89-.73-1.26-1.05c-.37-.31-.58-.47-.78-.68,0,0-.31-.31-.42-.42-.1-.1-.16-.21-.21-.26-.1-.26-.16-.58-.1-.99.05-.58.26-1.05.52-1.57.1-.21.37-.63.37-.63,0,0-.89,2.2-.42,2.88,0,0,.05-.68.26-1.36.16-.47.42-1.15.73-1.52s1.1-1.73,1.15-2.56c0-.37.05-.73.05-.99-.21-.21,3.45-.73,3.66-.16.05.21.78,2.09,1.2,3.09.21.47.47.89.63,1.41.16.58.26,1.36.26,2.15,0,.16,0,.42-.05.68.1,0,2.15-2.2-.26-4.03,0,0,1.47.68,1.52,2.04.05,1.1-.42,1.99-.52,2.15.05,0,1.1.47,1.15.47.21,0,.63-.16.63-.16.05-.16.21-.58.21-.73.37-1.2-.52-3.14-1.36-4.34Z"/>
        <g>
          <ellipse class="cls-6" cx="13.51" cy="9.36" rx=".68" ry="1.05"/>
          <ellipse class="cls-6" cx="15.87" cy="9.31" rx=".89" ry="1.2"/>
        </g>
        <g>
          <ellipse class="cls-5" cx="13.53" cy="9.48" rx=".37" ry=".63" transform="translate(-1.08 1.77) rotate(-7.2)"/>
          <ellipse class="cls-5" cx="15.82" cy="9.52" rx=".52" ry=".68"/>
        </g>
        <g>
          <path class="cls-1" d="M22.77,21.03c-.21-.1-.58-.26-.89-.73-.16-.26-.1-.99-.37-1.31-.16-.21-.37-.1-.42-.1-.47.1-1.57.84-2.3,0-.1-.1-.26-.26-.52-.26s-.37.1-.47.31-.1.37-.1.89c0,.42,0,.89-.05,1.26-.1.89-.26,1.41-.26,1.94,0,.58.16.94.37,1.1.16.16.42.26.99.26s.94-.21,1.31-.58c.26-.26.47-.37,1.2-.89.58-.37,1.47-.84,1.62-.99.1-.1.26-.16.26-.47,0-.26-.21-.37-.37-.42Z"/>
          <path class="cls-1" d="M12.26,21.19c-.52-.84-.58-.99-.94-1.52-.31-.52-.99-1.52-1.41-1.52-.31,0-.47.16-.68.37-.21.21-.42.68-.78.94-.31.26-1.2.21-1.41.52s.21.78.21,1.57c0,.31-.26.52-.31.73-.05.26-.1.42,0,.63.21.31.47.42,2.25.78.94.21,1.83.73,2.41.78s1.57,0,1.57-1.41c.05-.84-.42-1.05-.89-1.88Z"/>
          <path class="cls-1" d="M13.25,11.72c-.31-.21-.58-.42-.58-.73s.21-.42.52-.68c.05-.05.63-.58,1.2-.58s1.26.37,1.52.47c.47.1.94.21.89.58-.05.52-.1.63-.63.89-.37.1-1.05.68-1.52.68-.21,0-.52,0-.73-.05-.16-.05-.42-.31-.68-.58Z"/>
        </g>
        <g>
          <path class="cls-4" d="M13.15,11.3c.1.1.26.21.42.26.1.05.26.1.26.1h.47c.26,0,.63-.1.99-.31.37-.16.42-.26.68-.37.26-.16.52-.31.42-.37s-.21,0-.58.21c-.31.21-.58.31-.89.47-.16.05-.37.16-.52.16h-.47c-.16,0-.26-.05-.42-.1-.1-.05-.16-.1-.21-.1-.1-.05-.31-.26-.42-.31,0,0-.1,0-.05.05.16.16.21.21.31.31Z"/>
          <path class="cls-4" d="M14.72,10.15c.05.1.16.1.21.16.05.05.1.05.1.05.05-.05,0-.16-.05-.16,0-.1-.26-.1-.26-.05Z"/>
          <path class="cls-4" d="M13.88,10.25c0,.05.1.1.1.05.05-.05.1-.1.16-.1.1-.05.05-.1-.1-.1-.1.05-.1.1-.16.16Z"/>
        </g>
        <path class="cls-2" d="M18.95,19.52v.16c.1.21.37.26.58.26.31,0,.63-.21.78-.42,0-.05.05-.1.1-.16.1-.16.16-.26.21-.31,0,0-.05-.05-.05-.1-.05-.1-.21-.21-.42-.26-.16-.05-.42-.1-.52-.1-.47-.05-.73.1-.89.26,0,0,.05,0,.05.05.1.1.16.21.16.37.05.1,0,.16,0,.26Z"/>
      </g>
    </g>
  </g>
</svg>