<?xml version="1.0" encoding="UTF-8"?>
<svg id="Calque_2" data-name="Calque 2" xmlns="http://www.w3.org/2000/svg" viewBox="0 0 30 30">
  <defs>
    <style>
      .cls-1 {
        fill: none;
      }

      .cls-2 {
        fill: #57a2fe;
      }

      .cls-3 {
        fill: #2684ff;
      }
    </style>
  </defs>
  <g id="Calque_1-2" data-name="Calque 1">
    <g>
      <rect class="cls-1" width="30" height="30"/>
      <g>
        <path class="cls-3" d="M22.72,13.83H7c-.16,0-.3-.15-.31-.26-.01-.13.15-.32.27-.32h.9s0-.58,0-.58h-1.47c-.11,0-.28-.16-.28-.29v-5.83c0-.14.14-.29.31-.29h16.88c.16,0,.31.15.31.29v5.83c0,.13-.17.29-.28.29h-1.47s0,.58,0,.58h.89c.11,0,.27.16.28.26.01.14-.12.32-.31.32ZM21.28,12.08v-5.25s-14.58,0-14.58,0v5.25s14.58,0,14.58,0ZM23.03,7.71v-.88s-1.17,0-1.17,0v.88s1.17,0,1.17,0ZM23.03,9.17v-.88s-1.17,0-1.17,0v.88s1.17,0,1.17,0ZM23.03,10.63v-.88s-1.17,0-1.17,0v.88s1.17,0,1.17,0ZM23.03,12.08v-.88s-1.17,0-1.17,0v.88s1.17,0,1.17,0ZM21.26,13.25v-.58s-12.8,0-12.8,0v.58s12.8,0,12.8,0Z"/>
        <path class="cls-2" d="M11.06,23.16c-.2.44-.58.65-1.01.57-.39-.08-.69-.43-.71-.82s.27-.78.65-.88c.44-.12.86.1,1.06.55h2.65s0-7.87,0-7.87c0-.14.16-.29.26-.3.15-.01.33.12.33.3v8.16c0,.14-.16.3-.29.3h-2.94ZM10.11,22.6c-.15.07-.21.3-.14.42.06.11.29.17.4.11.11-.06.17-.29.11-.4-.04-.09-.27-.17-.38-.12Z"/>
        <path class="cls-2" d="M19,23.17h-3.27c-.13,0-.29-.15-.29-.3v-8.16c0-.14.16-.29.26-.3.15-.01.33.12.33.3v7.86s2.96,0,2.96,0c.19-.44.58-.65,1-.57.39.07.69.43.7.82s-.27.78-.65.88c-.42.11-.84-.05-1.04-.55ZM19.7,22.6c-.15.07-.21.3-.14.42.06.11.29.17.4.11.11-.06.16-.3.11-.4-.04-.09-.27-.17-.38-.12Z"/>
        <path class="cls-2" d="M9.28,20.54c-.2.44-.58.65-1.01.57-.39-.08-.69-.43-.71-.82s.27-.78.65-.88c.44-.12.86.1,1.06.55h2.67s0-5.25,0-5.25c0-.13.16-.29.26-.29.14-.01.33.13.33.29v5.54c0,.13-.16.29-.28.29h-2.96ZM8.33,19.98c-.15.07-.21.3-.14.42.06.11.29.17.4.11.11-.06.16-.3.11-.4-.04-.09-.27-.17-.38-.12Z"/>
        <path class="cls-2" d="M20.46,20.54h-2.98c-.13,0-.29-.16-.29-.29v-5.54c0-.13.16-.29.26-.29.14-.01.33.13.33.29v5.25s2.67,0,2.67,0c.19-.44.57-.65,1-.57.39.07.69.43.7.83s-.27.78-.65.88c-.42.11-.84-.05-1.04-.55ZM21.16,19.98c-.15.07-.21.3-.14.42.06.11.29.17.4.11.11-.06.17-.29.11-.4-.04-.09-.27-.17-.38-.12Z"/>
        <path class="cls-2" d="M7.82,17.91c-.2.44-.58.65-1,.57-.39-.08-.69-.43-.71-.82s.27-.78.65-.88c.44-.12.86.1,1.06.55h2.38s0-2.63,0-2.63c0-.11.16-.28.26-.29.14-.01.32.14.32.29v2.93c0,.12-.16.28-.28.28h-2.68ZM6.87,17.35c-.15.07-.21.3-.14.42.06.11.29.17.4.11.11-.06.17-.29.11-.4-.04-.09-.27-.17-.38-.12Z"/>
        <path class="cls-2" d="M22.2,17.92h-2.97c-.12,0-.28-.17-.28-.28v-2.94c0-.11.16-.28.26-.29.13-.01.32.14.32.29v2.63s2.64,0,2.64,0c.23-.41.57-.66,1.01-.56.38.08.69.43.7.83s-.27.78-.65.88c-.42.1-.84-.05-1.04-.55ZM22.89,17.35c-.15.07-.21.3-.14.42.06.11.29.17.4.11.11-.06.16-.29.11-.4-.04-.09-.27-.17-.38-.12Z"/>
        <path class="cls-3" d="M9.47,10.9c-.43.01-.95.02-1.39,0-.2,0-.24-.39-.22-.56-.15,0-.52-.04-.56-.18l-.02-1.89c0-.12.18-.28.29-.28h2.36c.11,0,.28.17.28.28l-.02,1.95-.55.14c0,.08-.05.44-.16.53ZM9.03,10.32c0-.29.02-.46.1-.5.09-.04.26-.05.47-.06v-1.17s-1.75,0-1.75,0v1.18c.22-.01.49-.01.52.09.04.13.06.28.09.49l.56-.02Z"/>
        <path class="cls-3" d="M12.97,10.9c-.44.01-.95.02-1.39,0-.2,0-.24-.39-.22-.56-.15,0-.52-.04-.56-.18l-.02-1.89c0-.12.18-.28.29-.28h2.36c.11,0,.28.17.28.28l-.02,1.95-.55.14c0,.08-.05.43-.16.53ZM12.53,10.32c0-.29.02-.46.1-.5s.26-.05.47-.06v-1.17s-1.75,0-1.75,0v1.18c.22-.01.49-.01.52.09.04.12.06.28.09.49l.56-.02Z"/>
        <path class="cls-3" d="M16.47,10.9c-.44.02-.95.02-1.39,0-.2,0-.24-.39-.22-.56-.15,0-.52-.04-.56-.18l-.02-1.89c0-.12.18-.28.29-.28h2.36c.11,0,.28.17.28.28l-.02,1.95-.56.14c0,.07-.04.44-.16.53ZM16.03,10.32c0-.29.02-.46.1-.5s.26-.05.47-.06v-1.17s-1.74,0-1.74,0v1.18c.22-.01.48,0,.52.09.04.11.06.29.09.48l.56-.02Z"/>
        <path class="cls-3" d="M19.97,10.9h-1.39c-.2,0-.24-.38-.22-.55-.15,0-.52-.04-.56-.18l-.02-1.89c0-.12.18-.28.29-.28h2.36c.11,0,.28.17.28.28l-.02,1.95-.55.14c0,.07-.05.44-.16.53ZM19.53,10.32c0-.29.02-.46.1-.5.09-.04.26-.05.47-.06v-1.17s-1.75,0-1.75,0v1.18c.22-.01.5-.02.52.09l.09.49.56-.02Z"/>
      </g>
    </g>
  </g>
</svg>