<?xml version="1.0" encoding="UTF-8"?>
<svg id="Calque_2" data-name="Calque 2" xmlns="http://www.w3.org/2000/svg" viewBox="4.08 9.77 21.83 10.46">
  <defs>
    <style>
      .cls-1 {
        fill: #fff;
      }

      .cls-2 {
        fill: none;
      }
    </style>
  </defs>
  <g id="Calque_1-2" data-name="Calque 1">
    <g>
      <rect class="cls-2" width="30" height="30"/>
      <g>
        <g>
          <path class="cls-1" d="M11.97,19.27h-5.86s0,.29,0,.29c0,.15-.13.26-.26.26s-.25-.11-.26-.26l-.02-.3c-.49.1-1-.19-1.03-.69-.03-.58-.02-1.14,0-1.74,0-.38.34-.74.74-.74h7.57c.42,0,.74.38.74.77,0,.58.02,1.13-.01,1.7-.03.5-.54.79-1.03.69l-.02.3c0,.13-.11.24-.23.26-.13.02-.28-.08-.29-.23l-.02-.32ZM10.38,17.92v-.48c0-.17-.11-.29-.27-.29s-.27.12-.27.29v.5c0,.16.12.28.27.28s.27-.11.27-.29ZM11.44,17.92v-.48c0-.17-.11-.29-.27-.29s-.27.12-.27.29v.5c0,.16.12.28.27.28s.27-.11.27-.29ZM12.5,17.92v-.48c0-.17-.11-.29-.27-.29s-.27.12-.27.29v.5c0,.16.12.28.27.28s.27-.11.27-.29Z"/>
          <path class="cls-1" d="M11.46,12.83c-1.34-1.33-3.51-1.32-4.84,0-.12.11-.27.14-.38.03-.13-.12-.12-.28,0-.4,1.54-1.53,4.05-1.53,5.59,0,.11.11.13.27.02.39-.1.11-.26.12-.4,0Z"/>
          <path class="cls-1" d="M10.7,13.58c-.93-.9-2.4-.9-3.33,0-.12.11-.24.14-.37.04-.08-.07-.16-.25-.05-.36,1.14-1.18,3.05-1.18,4.19,0,.11.11.03.3-.05.36-.13.1-.26.07-.37-.04Z"/>
          <path class="cls-1" d="M6.32,15.54h-.57s-1.21-2.82-1.21-2.82c-.06-.15.04-.31.16-.34.14-.04.28.02.34.17l1.28,3Z"/>
          <path class="cls-1" d="M12.32,15.55h-.58s1.29-3,1.29-3c.06-.15.2-.21.34-.17.13.04.23.19.16.34l-1.21,2.82Z"/>
          <path class="cls-1" d="M9.93,14.32c-.5-.46-1.29-.46-1.79,0-.13.12-.27.17-.41.05s-.11-.3.03-.43c.72-.64,1.82-.65,2.54,0,.13.12.16.29.04.41-.12.13-.27.11-.42-.02Z"/>
          <path class="cls-1" d="M9.22,15.09c-.27-.24-.47.26-.73.01-.1-.1-.12-.27,0-.39.31-.3.8-.3,1.11,0,.11.11.1.27.02.37-.1.12-.27.12-.39,0Z"/>
        </g>
        <g>
          <path class="cls-1" d="M24.63,16.52h-7.88c-.48,0-.86-.37-.88-.85s-.01-.89,0-1.35.4-.85.88-.85h7.87c.48,0,.86.38.88.85s.01.89,0,1.36-.37.85-.86.85ZM17.62,15.43v-.88c0-.12-.15-.22-.24-.21-.13.01-.22.11-.22.25v.84c0,.13.08.23.21.25.09,0,.24-.1.24-.23ZM18.49,15.42v-.84c0-.14-.11-.25-.24-.24-.11,0-.21.12-.21.24v.84c0,.14.11.25.24.24.11,0,.21-.12.21-.24ZM19.37,15.4v-.82c0-.13-.08-.23-.22-.25-.09,0-.24.1-.24.21v.9c0,.12.15.22.24.21.14-.01.22-.11.22-.26ZM22.34,14.57c-.27.07-.39.32-.33.55.06.22.3.37.52.31.24-.06.39-.28.34-.53-.04-.21-.27-.4-.53-.34ZM23.65,14.56c-.27.06-.4.31-.33.56.05.21.29.37.52.31s.39-.27.34-.52c-.04-.21-.27-.41-.52-.34Z"/>
          <path class="cls-1" d="M24.69,13.23h-8c-.46,0-.81-.4-.82-.84-.02-.47-.01-.89,0-1.36s.38-.86.87-.86h7.89c.49,0,.85.4.87.86s.01.9,0,1.35-.34.79-.8.84ZM17.62,12.12v-.88c0-.1-.16-.2-.24-.2-.1.01-.22.1-.22.22v.92c0,.12.14.2.25.19.1,0,.21-.11.21-.25ZM18.49,12.14v-.87c0-.13-.13-.23-.24-.22-.09,0-.21.11-.21.22v.87c0,.14.11.24.25.23.1,0,.21-.11.21-.23ZM19.36,12.16v-.9c0-.11-.11-.21-.21-.22-.08,0-.23.1-.23.2v.9c0,.12.1.22.2.23.12.01.25-.06.25-.21ZM22.3,11.29c-.26.08-.36.35-.28.58.07.21.33.33.53.27.25-.08.37-.31.31-.55s-.3-.38-.56-.3ZM23.61,11.29c-.26.08-.37.34-.28.58.07.21.32.33.53.27.25-.07.37-.31.31-.54s-.3-.39-.56-.31Z"/>
          <path class="cls-1" d="M24.64,19.82h-7.91c-.49,0-.85-.41-.87-.86s-.01-.89,0-1.36c.01-.43.36-.83.82-.83h7.98c.46,0,.81.4.82.83.02.46.01.9,0,1.35s-.36.82-.85.87ZM17.62,18.74v-.88c0-.12-.1-.22-.2-.23-.11-.01-.25.07-.25.19v.92c0,.11.11.21.21.22.08,0,.23-.1.23-.21ZM18.49,18.71v-.86c0-.14-.11-.24-.25-.23-.1,0-.21.11-.21.23v.87c0,.13.13.23.24.22.1,0,.21-.11.21-.24ZM19.37,18.72v-.9c0-.12-.14-.2-.25-.19-.1,0-.21.11-.2.23v.9c0,.1.16.2.24.2.1,0,.22-.1.21-.24ZM22.4,17.84c-.27.02-.44.25-.41.49s.23.42.47.4.42-.21.41-.47c-.01-.22-.2-.43-.47-.41ZM23.72,17.84c-.27.02-.44.24-.42.49s.22.42.48.4c.23-.02.42-.21.41-.47,0-.21-.2-.43-.47-.41Z"/>
        </g>
      </g>
    </g>
  </g>
</svg>