<?xml version="1.0" encoding="UTF-8"?>
<svg id="Calque_2" data-name="Calque 2" xmlns="http://www.w3.org/2000/svg" viewBox="0 0 30 30">
  <defs>
    <style>
      .cls-1 {
        fill: #e91b22;
      }

      .cls-2 {
        fill: none;
      }
    </style>
  </defs>
  <g id="Calque_1-2" data-name="Calque 1">
    <g>
      <rect class="cls-2" width="30" height="30"/>
      <g>
        <path class="cls-1" d="M13.43,12.95h1.52l-.8-1.29-1.48,2.34h-.67l1.79-2.81c.08-.11.21-.18.35-.18s.27.07.35.18l1.8,2.81h-.67l-.32-.52h-1.54l-.34-.52h0ZM20.4,13.48v-2.44h-.57v2.68c0,.07.03.14.08.2.05.05.13.09.21.09h2.6l.34-.52h-2.66ZM10.98,13.04c.55,0,1-.45,1-1s-.45-1-1-1h-2.49v2.96h.57v-2.44h1.89c.26,0,.48.22.48.48s-.21.48-.48.48h-1.61s1.7,1.48,1.7,1.48h.83l-1.14-.96h.26ZM4.98,14c-.82,0-1.48-.66-1.48-1.48s.66-1.48,1.48-1.48h1.72c.82,0,1.48.66,1.48,1.48s-.66,1.48-1.48,1.48h-1.72ZM6.66,13.48c.53,0,.96-.43.96-.96s-.43-.96-.96-.96h-1.65c-.53,0-.96.43-.96.96s.43.96.96.96h1.65ZM17.48,14c-.82,0-1.48-.66-1.48-1.48s.66-1.48,1.48-1.48h2.05l-.33.52h-1.67c-.53,0-.96.43-.96.96s.43.96.96.96h2.05l-.34.52h-1.76ZM24.45,13.48c-.44,0-.81-.29-.92-.7h2.44l.34-.52h-2.77c.11-.4.48-.7.92-.7h1.67l.34-.52h-2.05c-.82,0-1.48.66-1.48,1.48s.66,1.48,1.48,1.48h1.76l.34-.52h-2.05Z"/>
        <g>
          <path d="M9.06,18.32l.38-.04c.02.13.07.22.14.28.07.06.17.09.29.09.13,0,.22-.03.29-.08.06-.05.1-.12.1-.19,0-.05-.01-.09-.04-.12-.03-.03-.07-.06-.14-.08-.05-.02-.15-.04-.32-.09-.21-.05-.36-.12-.44-.19-.12-.11-.18-.24-.18-.39,0-.1.03-.19.08-.28.06-.09.14-.15.24-.2.11-.05.23-.07.38-.07.24,0,.43.05.55.16.12.11.19.25.2.43l-.39.02c-.02-.1-.05-.17-.11-.22-.06-.04-.14-.07-.25-.07s-.2.02-.27.07c-.04.03-.06.07-.06.12,0,.05.02.09.06.12.05.04.17.09.36.13.19.05.33.09.43.14.09.05.16.11.22.2.05.08.08.19.08.31,0,.11-.03.22-.09.31-.06.1-.15.17-.26.22s-.26.07-.42.07c-.25,0-.44-.06-.57-.17-.13-.11-.21-.28-.24-.5Z"/>
          <path d="M10.89,17.99c0-.2.03-.37.09-.5.04-.1.11-.19.18-.27.08-.08.16-.14.25-.18.12-.05.26-.08.42-.08.29,0,.52.09.69.27.17.18.26.43.26.74s-.09.56-.26.74-.4.27-.69.27-.52-.09-.69-.27-.26-.42-.26-.73ZM11.3,17.98c0,.22.05.39.15.5.1.11.23.17.39.17s.29-.06.39-.17c.1-.11.15-.28.15-.51s-.05-.39-.15-.5c-.1-.11-.23-.17-.39-.17s-.29.06-.39.17c-.1.11-.15.28-.15.5Z"/>
          <path d="M13.11,18.96v-1.94h.39v1.61h.98v.33h-1.37Z"/>
          <path d="M16.52,18.96h-.43l-.17-.44h-.78l-.16.44h-.42l.76-1.95h.42l.78,1.95ZM15.8,18.18l-.27-.72-.26.72h.53Z"/>
          <path d="M16.73,18.96v-1.95h.83c.21,0,.36.02.45.05.09.04.17.1.23.19.06.09.09.19.09.31,0,.15-.04.27-.13.36-.09.1-.21.16-.39.18.09.05.16.1.21.16s.13.17.22.32l.24.38h-.47l-.28-.42c-.1-.15-.17-.25-.21-.29-.04-.04-.08-.07-.12-.08-.04-.01-.11-.02-.2-.02h-.08v.81h-.39ZM17.13,17.83h.29c.19,0,.31,0,.35-.02.05-.02.08-.04.11-.08.03-.04.04-.09.04-.15,0-.07-.02-.12-.05-.16-.04-.04-.08-.07-.15-.08-.03,0-.13,0-.29,0h-.31v.5Z"/>
          <path d="M18.69,18.96v-1.95h.39v1.95h-.39Z"/>
          <path d="M19.36,18.32l.38-.04c.02.13.07.22.14.28.07.06.17.09.29.09.13,0,.22-.03.29-.08.06-.05.1-.12.1-.19,0-.05-.01-.09-.04-.12-.03-.03-.07-.06-.14-.08-.05-.02-.15-.04-.32-.09-.21-.05-.36-.12-.44-.19-.12-.11-.18-.24-.18-.39,0-.1.03-.19.08-.28.06-.09.14-.15.24-.2.11-.05.23-.07.38-.07.24,0,.43.05.55.16.12.11.19.25.2.43l-.39.02c-.02-.1-.05-.17-.11-.22-.06-.04-.14-.07-.25-.07s-.2.02-.27.07c-.04.03-.06.07-.06.12,0,.05.02.09.06.12.05.04.17.09.36.13.19.05.33.09.43.14.09.05.16.11.22.2.05.08.08.19.08.31,0,.11-.03.22-.09.31-.06.1-.15.17-.26.22s-.26.07-.42.07c-.25,0-.44-.06-.57-.17-.13-.11-.21-.28-.24-.5Z"/>
        </g>
        <rect x="3.66" y="15.6" width="22.69" height=".12"/>
      </g>
    </g>
  </g>
</svg>