<?xml version="1.0" encoding="UTF-8"?>
<svg id="Calque_2" data-name="Calque 2" xmlns="http://www.w3.org/2000/svg" viewBox="6.22 5.10 17.56 19.81">
  <defs>
    <style>
      .cls-1 {
        fill: #98c6fe;
      }

      .cls-2 {
        fill: none;
      }

      .cls-3 {
        fill: #57a2fe;
      }

      .cls-4 {
        fill: #bcd8fe;
      }

      .cls-5 {
        fill: #2387fe;
      }

      .cls-6 {
        fill: #2684ff;
      }
    </style>
  </defs>
  <g id="Calque_1-2" data-name="Calque 1">
    <g>
      <rect class="cls-2" width="30" height="30"/>
      <g>
        <g>
          <path class="cls-6" d="M11.14,22.75c0,.54.44.98.98.98h9.51c.54,0,.98-.44.98-.98V7.25c0-.54-.44-.98-.98-.98h-9.51c-.54,0-.98.44-.98.98v4.35h-.77v-4.35c0-.96.78-1.75,1.75-1.75h9.51c.96,0,1.75.78,1.75,1.75v15.51c0,.96-.78,1.75-1.75,1.75h-9.51c-.96,0-1.75-.78-1.75-1.75"/>
          <path class="cls-6" d="M17.59,8.58v4.32c.05.16.2.31.34.36h2.19c.14-.04.3-.2.34-.36v-4.28c-.04-.2-.2-.36-.35-.4h-2.18c-.14.04-.3.2-.34.36ZM19.75,12.53h-1.44s0-3.59,0-3.59h1.44s0,3.59,0,3.59Z"/>
          <path class="cls-6" d="M17.6,20.84c.03.2.28.34.53.33.16,0,.42-.09.48-.2.06-.09.03-.33-.04-.4s-.29-.13-.49-.14c-.3-.02-.51.2-.48.41Z"/>
          <path class="cls-6" d="M18.62,18.1c.06-.09.03-.33-.04-.4-.08-.07-.29-.13-.49-.14-.3-.02-.51.2-.48.41.03.2.28.34.53.33.16,0,.42-.09.48-.2Z"/>
          <path class="cls-6" d="M17.6,16.53c.03.2.28.34.53.33.16,0,.42-.09.48-.2.06-.09.03-.33-.04-.4-.08-.07-.29-.13-.49-.14-.29-.02-.51.2-.48.41Z"/>
          <path class="cls-6" d="M18.62,15.23c.06-.09.03-.33-.04-.4s-.29-.13-.49-.14c-.3-.02-.51.2-.48.41.03.2.28.34.53.33.16,0,.42-.09.48-.2Z"/>
          <path class="cls-6" d="M18.62,19.53c.06-.09.03-.33-.04-.4s-.29-.13-.49-.14c-.3-.02-.51.2-.48.41.03.2.28.34.53.33.16,0,.42-.09.48-.2Z"/>
          <path class="cls-6" d="M19.4,20.84c.03.2.28.34.53.33.16,0,.42-.09.48-.2.06-.09.03-.33-.04-.4s-.29-.13-.49-.14c-.3-.02-.51.2-.48.41Z"/>
          <path class="cls-6" d="M19.4,19.4c.03.2.28.34.53.33.16,0,.42-.09.48-.2.06-.09.03-.33-.04-.4-.08-.07-.29-.13-.49-.14-.3-.02-.51.2-.48.41Z"/>
          <path class="cls-6" d="M19.4,17.96c.03.2.28.34.53.33.16,0,.42-.09.48-.2.06-.09.03-.33-.04-.4-.08-.07-.29-.13-.49-.14-.29-.02-.51.2-.48.41Z"/>
          <path class="cls-6" d="M19.4,16.53c.03.2.28.34.53.33.16,0,.42-.09.48-.2.06-.09.03-.33-.04-.4-.08-.07-.29-.13-.49-.14-.3-.02-.51.2-.48.41Z"/>
          <path class="cls-6" d="M19.4,15.09c.03.2.28.34.53.33.16,0,.42-.09.48-.2.06-.09.03-.33-.04-.4-.08-.07-.29-.13-.49-.14-.3-.02-.51.2-.48.41Z"/>
        </g>
        <g>
          <path class="cls-4" d="M13.3,14.7c-1.65.43-3.34.42-4.96.02-.68-.17-1.71-.61-1.72-1.15s1.04-1.01,1.73-1.19c1.63-.4,3.33-.39,4.95.03.64.16,1.59.59,1.62,1.1.04.55-.92,1-1.63,1.18Z"/>
          <path class="cls-5" d="M7.03,21.35c-.13-.14-.4-.36-.4-.52v-1.66c.52.36.99.59,1.59.74,1.66.4,3.41.41,5.08,0,.61-.15,1.13-.39,1.63-.76v1.61c0,.19-.17.38-.31.52-.48.31-.98.53-1.55.66-1.84.41-4.36.4-6.04-.59ZM7.19,20.3c-.16.09-.16.33-.07.43.07.08.27.11.36.05.12-.08.16-.27.09-.39-.05-.1-.26-.17-.39-.09Z"/>
          <path class="cls-3" d="M14.93,18.38c0,.55-1.17,1.01-1.87,1.17-1.81.41-4.28.38-5.93-.53-.16-.14-.49-.35-.49-.58v-1.68c.48.37.96.59,1.54.74,1.67.43,3.43.42,5.11.02.6-.14,1.11-.37,1.63-.75v1.61ZM7.19,17.92c-.16.1-.16.33-.07.43.06.07.27.1.36.05.12-.07.16-.28.1-.39-.06-.1-.27-.17-.39-.09Z"/>
          <path class="cls-1" d="M14.52,16.56c-.54.32-1.06.52-1.66.63-1.78.35-4.22.32-5.8-.62-.15-.12-.43-.33-.43-.52v-1.68c.56.43,1.15.66,1.84.81,1.93.42,4.84.39,6.46-.81v1.68c-.01.16-.27.38-.41.51ZM7.2,15.52c-.14.07-.17.29-.1.41.06.11.28.14.39.08.12-.07.16-.28.09-.39s-.26-.16-.38-.1Z"/>
        </g>
      </g>
    </g>
  </g>
</svg>